<svg xmlns="http://www.w3.org/2000/svg" viewBox="0 0 434.8 148.1"><path fill="#6E6461" d="M-6.6 80.3h448.1v67.5H-6.6z"/><g fill="#145591"><path d="M83.8 53.1h-1c-1.6 0-2.8 1.3-2.8 2.8v26.7c0 1.6 1.3 2.8 2.8 2.8h1c1.6 0 2.8-1.3 2.8-2.8V56c.1-1.6-1.2-2.9-2.8-2.9z"/><path d="M79.2 53.2h8.2v1.9h-8.2zm0 30.4h8.2v1.9h-8.2z"/></g><g fill="#145591"><path d="M170.7 52.9h-1c-1.6 0-2.8 1.3-2.8 2.8v26.7c0 1.6 1.3 2.8 2.8 2.8h1c1.6 0 2.8-1.3 2.8-2.8V55.8c0-1.6-1.2-2.9-2.8-2.9z"/><path d="M166 53h8.2v1.9H166zm0 30.5h8.2v1.9H166z"/></g><g fill="#145591"><path d="M257.6 53.1h-1c-1.6 0-2.8 1.3-2.8 2.8v26.7c0 1.6 1.3 2.8 2.8 2.8h1c1.6 0 2.8-1.3 2.8-2.8V56c0-1.6-1.3-2.9-2.8-2.9z"/><path d="M252.9 53.2h8.2v1.9h-8.2zm0 30.4h8.2v1.9h-8.2z"/></g><g fill="#145591"><path d="M344.5 53.1h-1c-1.6 0-2.8 1.3-2.8 2.8v26.7c0 1.6 1.3 2.8 2.8 2.8h1c1.6 0 2.8-1.3 2.8-2.8V56c0-1.6-1.3-2.9-2.8-2.9z"/><path d="M339.8 53.2h8.2v1.9h-8.2zm0 30.4h8.2v1.9h-8.2z"/></g><g fill="#145591"><path d="M431.3 53.1h-1c-1.6 0-2.8 1.3-2.8 2.8v26.7c0 1.6 1.3 2.8 2.8 2.8h1c1.6 0 2.8-1.3 2.8-2.8V56c0-1.6-1.3-2.9-2.8-2.9z"/><path d="M426.6 53.2h8.2v1.9h-8.2zm0 30.4h8.2v1.9h-8.2z"/></g><g fill="#FFF"><path d="M.8 55.4h78.4v1.7H.8zm0 25.8h78.4v1.7H.8z"/><path d="M.8 55.4h1.7v27.3H.8zm76.6.2h1.7v27.3h-1.7zm-73 .6h.7v25.9h-.7zm4.6 0h.7v25.9H9zm4.7 0h.7v25.9h-.7zm4.6 0h.7v25.9h-.7zm4.7 0h.7v25.9H23zm4.7 0h.7v25.9h-.7zm4.6 0h.7v25.9h-.7zm4.7 0h.7v25.9H37zm4.6 0h.7v25.9h-.7zm4.7 0h.7v25.9h-.7zm4.6 0h.7v25.9h-.7zm4.7 0h.7v25.9h-.7zm4.7 0h.7v25.9h-.7zm4.6 0h.7v25.9h-.7zm4.7 0h.7v25.9h-.7zm4.6 0h.7v25.9h-.7z"/></g><g fill="#FFF"><path d="M87.7 55.4h78.4v1.7H87.7zm0 25.8h78.4v1.7H87.7z"/><path d="M87.7 55.4h1.7v27.3h-1.7zm76.6.2h1.7v27.3h-1.7zm-73 .6h.7v25.9h-.7zm4.6 0h.7v25.9h-.7zm4.7 0h.7v25.9h-.7zm4.6 0h.7v25.9h-.7zm4.7 0h.7v25.9h-.7zm4.6 0h.7v25.9h-.7zm4.7 0h.7v25.9h-.7zm4.7 0h.7v25.9h-.7zm4.6 0h.7v25.9h-.7zm4.7 0h.7v25.9h-.7zm4.6 0h.7v25.9h-.7zm4.7 0h.7v25.9h-.7zm4.6 0h.7v25.9h-.7zm4.7 0h.7v25.9h-.7zm4.6 0h.7v25.9h-.7zm4.7 0h.7v25.9h-.7z"/></g><g fill="#FFF"><path d="M174.5 55.4h78.4v1.7h-78.4zm0 25.8h78.4v1.7h-78.4z"/><path d="M174.5 55.4h1.7v27.3h-1.7zm76.7.2h1.7v27.3h-1.7zm-73.1.6h.7v25.9h-.7zm4.7 0h.7v25.9h-.7zm4.7 0h.7v25.9h-.7zm4.6 0h.7v25.9h-.7zm4.7 0h.7v25.9h-.7zm4.6 0h.7v25.9h-.7zm4.7 0h.7v25.9h-.7zm4.6 0h.7v25.9h-.7zm4.7 0h.7v25.9h-.7zm4.6 0h.7v25.9h-.7zm4.7 0h.7v25.9h-.7zm4.7 0h.7v25.9h-.7zm4.6 0h.7v25.9h-.7zm4.7 0h.7v25.9h-.7zm4.6 0h.7v25.9h-.7zm4.7 0h.7v25.9h-.7z"/></g><g fill="#FFF"><path d="M348.3 55.4h78.4v1.7h-78.4zm0 25.8h78.4v1.7h-78.4z"/><path d="M348.3 55.4h1.7v27.3h-1.7zm76.7.2h1.7v27.3H425zm-73.1.6h.7v25.9h-.7zm4.7 0h.7v25.9h-.7zm4.6 0h.7v25.9h-.7zm4.7 0h.7v25.9h-.7zm4.6 0h.7v25.9h-.7zm4.7 0h.7v25.9h-.7zm4.6 0h.7v25.9h-.7zm4.7 0h.7v25.9h-.7zm4.6 0h.7v25.9h-.7zm4.7 0h.7v25.9h-.7zm4.7 0h.7v25.9h-.7zm4.6 0h.7v25.9h-.7zm4.7 0h.7v25.9h-.7zm4.6 0h.7v25.9h-.7zm4.7 0h.7v25.9h-.7zm4.6 0h.7v25.9h-.7z"/></g><g fill="#FFF"><path d="M261.4 55.4h78.4v1.7h-78.4zm0 25.8h78.4v1.7h-78.4z"/><path d="M261.4 55.4h1.7v27.3h-1.7zm76.7.2h1.7v27.3h-1.7zm-73.1.6h.7v25.9h-.7zm4.7 0h.7v25.9h-.7zm4.6 0h.7v25.9h-.7zm4.7 0h.7v25.9h-.7zm4.6 0h.7v25.9h-.7zm4.7 0h.7v25.9h-.7zm4.7 0h.7v25.9h-.7zm4.6 0h.7v25.9h-.7zm4.7 0h.7v25.9h-.7zm4.6 0h.7v25.9h-.7zm4.7 0h.7v25.9h-.7zm4.6 0h.7v25.9h-.7zm4.7 0h.7v25.9h-.7zm4.6 0h.7v25.9h-.7zm4.7 0h.7v25.9h-.7zm4.7 0h.7v25.9h-.7z"/></g><path fill="#145591" d="M132.1 18.4h2.9v74.8h-2.9z"/><path fill="#145591" d="M133.6 50c-1.6 0-2.8 1.2-2.8 2.7v39.2c0 1.5 1.2 2.7 2.7 2.7h.1c1.5 0 2.7-1.2 2.7-2.7V52.7c.1-1.5-1.2-2.7-2.7-2.7z"/><circle fill="#FFF" cx="133.4" cy="9.6" r="9.6"/><path fill="#145591" d="M143.7 11.2c0 .4-.3.8-.8.8-2.9.2-6 .4-9.4.4-3.4 0-6.6-.1-9.6-.4-.4 0-.8-.4-.8-.8V9c0-.5.4-.9.9-.8 2.9.2 6 .4 9.3.4 3.3 0 6.5-.1 9.3-.4.5 0 .9.3.9.8v2.2z"/><path fill="#727373" d="M-6.6 137.8h448.1V148H-6.6z"/></svg>