<?xml version="1.0" encoding="utf-8"?>
<!-- Generator: Adobe Illustrator 19.1.0, SVG Export Plug-In . SVG Version: 6.00 Build 0)  -->
<svg version="1.1" id="Layer_1" xmlns="http://www.w3.org/2000/svg" xmlns:xlink="http://www.w3.org/1999/xlink" x="0px" y="0px"
	 viewBox="0 0 152.7 233.5" enable-background="new 0 0 152.7 233.5" xml:space="preserve">
<g>
	<rect x="11.3" y="154.3" fill="#785328" width="11.7" height="66.6"/>
	<rect x="127.3" y="154.3" fill="#785328" width="11.7" height="66.6"/>
	<rect x="0" y="148.4" fill="#6E4523" width="149" height="7.6"/>
	<polygon fill="#EDEDED" points="74.5,214.6 8,148.1 141,148.1 	"/>
	<g>
		<rect x="125.8" y="81.4" fill="#5EBB47" width="2.5" height="20.2"/>
		<path fill="#C02826" d="M113.8,97.9c0,0,5.4,3.6,5.2,7c-0.1,2.7-3.8,4.9-5.5,6.4c-3.7,3.2-4.5,11.6,6.8,37
			c5.1-0.1,10.2,0.1,15.2,0c10-23.4,8.7-33.3,5.2-37c-1.1-1.1-5.2-2.8-5-6.1c0.2-4,5.5-7.2,5.5-7.2H113.8z"/>
		<path fill="#C5D92D" d="M127,62.8c4.4,0,3,9.3,3,9.3s8.5-3.1,9.8,0c1.4,3.1-7.9,5.8-7.9,5.8s6.5,7.1,3,9.3
			c-3.5,2.2-7.9-5.8-7.9-5.8s-4.6,6.8-7.9,5.8c-3.4-1,3-9.3,3-9.3s-9.5-2.7-7.9-5.8c1.5-3.1,9.8,0,9.8,0S122.6,62.8,127,62.8z"/>
		<path fill="#C4BE30" d="M121,64.3c3.8-2.1,7.2,6.7,7.2,6.7s5.9-6.8,8.6-4.8c2.7,2-4.1,8.9-4.1,8.9s9.2,3.1,7.2,6.7
			s-9.7-1.2-9.7-1.2s-0.7,8.1-4.1,8.9s-1.9-9.6-1.9-9.6s-9.6,2.3-9.7-1.2s8.6-4.8,8.6-4.8S117.2,66.5,121,64.3z"/>
		<circle fill="#F8EC20" cx="127.2" cy="76.6" r="3.6"/>
	</g>
	<g>
		<path fill="#E4A579" d="M19.8,49.2c0.4-4.1-8.8-7.7-9.9-3.8C0,78.5,2.4,79.6,3.6,80.6c0.7,0.6,2.7-1.7,6.6-1.4
			c1.1,0.1,1.9,0.3,2.4,0.6c1.3,0.6,2.8-0.2,3.5-2C17.7,73.9,17,73.3,19.8,49.2L19.8,49.2L19.8,49.2z"/>
		<path fill="#263C82" d="M18,71.1C15.1,68.4,0.2,76,2.1,79.7c15.8,31,19.1,28.5,21.1,27.6c1.2-0.6,1.4-4.4,5.5-9.2
			c1.2-1.4,2.1-2.2,2.9-2.7c1.8-1.3,2.6-3.7,2-5.6C32.1,85.6,33.9,88.1,18,71.1L18,71.1L18,71.1z"/>
		<path fill="#E4A579" d="M86.1,155.2c0.5,4.4,9.7,6.6,10,2.3c2.8-36.4,0.3-37.1-1-38c-0.8-0.5-2.2,2.2-5.9,2.6
			c-1.1,0.1-1.8,0-2.4-0.2c-1.3-0.4-2.6,0.7-2.9,2.7C83.3,128.9,84,129.5,86.1,155.2L86.1,155.2L86.1,155.2z"/>
		<path fill="#263C82" d="M84.1,131.6c2.9,2.8,14.2-6.9,12.3-10.7C79.8,88.7,76.7,91.2,74.8,92.2c-1.1,0.6-1.2,4.5-5,9.4
			c-1.1,1.4-2,2.2-2.7,2.8c-1.7,1.3-2.4,3.8-1.7,5.7C66.8,114.4,68,113.9,84.1,131.6L84.1,131.6L84.1,131.6z"/>
		<path fill="#4253A4" d="M82.5,128.6c2.9,2.9,14.5-7.2,12.6-11.1C78.7,85.1,75.6,87.7,73.6,88.7c-1.1,0.6-1.3,4.6-5.2,9.6
			c-1.1,1.5-2.1,2.3-2.8,2.9c-1.7,1.4-2.5,3.9-1.8,5.9C65.2,111.4,66.3,110.9,82.5,128.6L82.5,128.6L82.5,128.6z"/>
		<path fill="#4253A4" d="M19.3,72.6c-2.8-2.7-18.2,5.3-16.3,9c15.5,31.4,18.9,28.8,21,27.7c1.2-0.6,1.5-4.5,5.7-9.4
			c1.2-1.4,2.2-2.3,3-2.8c1.8-1.4,2.7-3.8,2.1-5.8C33.5,87,35.2,89.6,19.3,72.6L19.3,72.6L19.3,72.6z"/>
		<path fill="#0F2B47" d="M56.6,233.3l19-0.2c3.7,0,6.7-3.1,6.7-6.8l-0.6-64.5c0-3.7-3.1-6.7-6.8-6.7l-19,0.2
			c-3.7,0-6.7,3.1-6.7,6.8l0.6,64.5C49.9,230.3,52.9,233.3,56.6,233.3z"/>
		<path fill="#0F2B47" d="M22.3,232.7l19,0.8c3.7,0.2,6.9-2.8,7-6.5l2.7-64.5c0.2-3.7-2.8-6.9-6.5-7l-19-0.8c-3.7-0.2-6.9,2.8-7,6.5
			l-2.7,64.5C15.7,229.4,18.6,232.6,22.3,232.7z"/>
		<path fill="#060505" d="M20.7,162.7c6.7,6.7,18.7,6.6,30.6,6.4c11.4-0.1,21.4-0.3,27.6-6.2c2.7-2.6,4.1-5.8,4.5-11.2
			c0.5,9.5-0.8,14-4.5,17.5c-6.2,5.9-16.2,6-27.6,6.2c-11.9,0.1-23.9,0.3-30.6-6.4c-2.5-2.6-4.3-5.1-3.7-14.3
			C17.4,159.1,18.9,160.9,20.7,162.7z"/>
		<path fill="#686766" d="M45.3,175.5h9.5c0.9,0,1.6-0.7,1.6-1.6v-2.7c0-0.9-0.7-1.6-1.6-1.6h-9.5c-0.9,0-1.6,0.7-1.6,1.6v2.7
			C43.7,174.8,44.4,175.5,45.3,175.5z"/>
		<path d="M82.7,231.3c0,2-2.8,2.4-6.1,2.2c-7.2-0.6-14.5-0.6-21.7,0c-3.3,0.3-6.1-0.1-6.1-2.2c0-5,7.6-12.1,16.9-12.1
			S82.7,226.2,82.7,231.3z"/>
		<path d="M48.8,231.3c0,2-2.8,2.4-6.1,2.2c-7.2-0.6-14.5-0.6-21.7,0c-3.3,0.3-6.1-0.1-6.1-2.2c0-5,7.6-12.1,16.9-12.1
			S48.8,226.2,48.8,231.3z"/>
		<g>
			<path fill="#E4A579" d="M84,158.9c-1.9,4-2.5,7.9-1.4,8.6c1.1,0.7,3.5-2,5.3-6.1c1.9-4,2.5-7.9,1.4-8.6
				C88.2,152.1,85.9,154.9,84,158.9z"/>
			<path fill="#E4A579" d="M84.5,162.5c0.2,6.4,3.3,11.5,6.7,11.3s6.1-5.6,5.8-12c-0.2-6.4-3.3-11.5-6.7-11.3
				C86.9,150.7,84.3,156.1,84.5,162.5z"/>
		</g>
		<path fill="#4253A4" d="M74.8,87.8c5.2,19.4,7.6,35.9,8.8,48.2c1.6,16.7,0.7,23.2-4,28c-6.4,6.5-16.8,6.6-28.6,6.8
			c-12.3,0.2-24.8,0.3-31.7-7.1c-3.5-3.7-5.5-7.2-2.5-27.8c1.7-11.3,4.9-29.4,11.7-48.4C43.9,87.6,59.3,87.7,74.8,87.8z"/>
		<ellipse fill="#263C82" cx="51.9" cy="93.8" rx="15.1" ry="9"/>
		<ellipse fill="#E4A579" cx="51.9" cy="92.5" rx="12.1" ry="7.2"/>
		<g>
			<path fill="#E4A579" d="M23,43.9c3.2-2.8,5.3-5.9,4.5-6.9c-0.8-1-4,0.5-7.3,3.3c-3.2,2.8-5.3,5.9-4.5,6.9
				C16.5,48.2,19.7,46.7,23,43.9z"/>
			<path fill="#E4A579" d="M23.4,41c2.2-5.7,1.2-11.1-2.1-12.2s-7.8,2.6-10,8.2s-1.2,11.1,2.1,12.2C16.8,50.4,21.2,46.7,23.4,41z"/>
		</g>
		<text transform="matrix(1 0 0 1 94.1519 16.9953)"><tspan x="0" y="0" font-family="'MarkerFelt-Wide'" font-size="14px">Table </tspan><tspan x="0" y="16.8" font-family="'MarkerFelt-Wide'" font-size="14px">layouts??</tspan></text>
		<g>
			<path fill="#E4A579" d="M82.1,39.1c1.5-0.6,3.7,1.4,4.7,3.1c2.8,5.1-3,12.9-5.1,12.4C79.2,54,78.6,40.4,82.1,39.1z"/>
			<path fill="#E4A579" d="M20.9,39.1c-1.5-0.6-3.7,1.4-4.7,3.1c-2.8,5.1,3,12.9,5.1,12.4C23.8,54,24.3,40.4,20.9,39.1z"/>
			<path fill="#603913" d="M83.9,35c-0.6-2.8-0.2-5.7,0-8.5c0.2-2.8,0.1-5.8-1.2-8.4c-1.3-2.6-4.2-4.8-7.5-4.7
				c0.1-0.2,0.5-0.9,1.4-1.3c1-0.4,2.4-0.2,3.4,0.5c-0.9-0.9-2.2-2.1-4-3.1c-2.4-1.5-4.8-2.2-6.4-2.6c1.1-0.7,4-2.2,7.5-1.8
				c0.7,0.1,1.3,0.2,1.8,0.4C78.2,4.9,77,4,75.5,3.2c-4.4-2.1-8.8-1.5-11.6-1.2C58.3,2.8,54.1,5,51.8,6.5c1.3-2.7,4.1-4.7,7.4-5.2
				c0.7-0.2,1.4-0.3,2-0.5c-0.9-0.2-2.2-0.5-3.7-0.6c-4-0.4-6.9,0.3-11.9,1.6c0,0-8,2.1-13,4.9c-0.9,0.5-1.6,1-1.6,1
				c-0.3,0.2-0.7,0.5-1,0.7C29.8,7.9,29.6,7,29.7,6C30,5,30.5,4.3,30.8,3.9c-0.6,0.2-1.7,0.5-2.7,1.3c-1.8,1.5-2,3.3-2.1,3.8
				c-0.2-0.2-0.6-0.6-0.7-1.2c-0.3-1.1,0.1-2,0.2-2.2c-0.7,0.4-4.9,3-5.4,7.5c-0.2,2.2,0.4,3.9,0.9,4.9c-0.9,2.3-2,5.8-2.4,10.1
				c-0.6,5.6,1.2,8.7,1,13.4C18,85.1,34.2,92.3,51.9,92.3c16.1,0,28.2-10.6,29.8-18.1c1.5-6.9,2.8-13.9,2.9-25.3
				C84.7,44.2,84.8,39.6,83.9,35z"/>
			<path fill="#E4A579" d="M35.7,27.8c4.1-0.7,4.9-0.3,8.5-0.7c8.8-1,11.7-4.9,17.5-3.6c1.6,0.4,2.8,1,3.5,1.4
				c-0.5-0.1-1.2-0.2-1.9-0.1c-3.1,0.3-5,2.8-5.3,3.3c2.4-0.5,14.7-2.6,20.6,3.8c0.9,1,1.4,1.9,1.7,2.4c3,5.4,0.1,8.7,0,18.2
				c-0.1,5.5,0.9,7.3-0.9,10.3c-1.6,2.8-4.1,4.2-4.9,4.7c-4.8,2.8-9.9,2.1-15.1,1.8C39.9,68.2,36.5,70.2,29,68c-3.5-1-4.8-4.7-5.4-8
				c-0.8-5.1-0.8-10.3-0.8-15.5c0-2,0-4.1,0-6.1c0-1.3,0-2.7,0.5-3.9c0.9-2.1,2.9-3.1,4.7-4.2C29.7,29.5,32,28.5,35.7,27.8z"/>
			<g opacity="0.6">
				<g>
					<path fill="#8B5E3C" d="M56.1,58.4c0,0,0.4,0.5,1.1,1.3c0.3,0.4,0.8,1,1.2,1.6c0.1,0.2,0.2,0.3,0.3,0.6c0,0.2,0,0.4,0,0.7
						c-0.1,0.5-0.3,0.9-0.6,1.3c-0.6,0.8-1.4,1.5-2.4,2.1c-1,0.6-2.1,1-3.3,1.2c-1.2,0.2-2.5,0.1-3.8-0.4c-0.6-0.2-1.2-0.6-1.7-1
						c-0.5-0.4-1-0.9-1.4-1.5c-0.7-1.1-1.2-2.4-1.3-3.7l0-0.5c0-0.2,0.1-0.4,0.1-0.5c0.1-0.3,0.2-0.7,0.4-0.9c0.4-0.6,0.8-1,1.2-1.4
						c0.4-0.4,0.8-0.8,1-1.3c0.2-0.5,0.2-0.9,0-1.4c-0.2-1.1-0.2-2.2-0.2-3.1c0.1-1.9,0.6-3.4,0.7-4.5c0.2-1.1,0.1-1.7,0.1-1.7
						s0.2,0.6,0.1,1.7c-0.1,1.1-0.3,2.7-0.4,4.5c0,0.9,0,1.9,0.3,3c0.1,0.5,0.3,1.2,0,1.8c-0.2,0.6-0.7,1.1-1.1,1.5
						c-0.4,0.4-0.8,0.8-1.1,1.3c-0.1,0.2-0.2,0.5-0.3,0.7c0,0.1-0.1,0.2-0.1,0.4l0,0.4c0.1,1.2,0.6,2.3,1.2,3.3
						c0.3,0.5,0.7,1,1.2,1.3c0.2,0.2,0.5,0.4,0.7,0.5c0.2,0.2,0.5,0.3,0.8,0.4c1.1,0.5,2.3,0.6,3.4,0.4c1.1-0.2,2.2-0.5,3.1-1
						c0.9-0.5,1.7-1.1,2.3-1.8c0.3-0.3,0.5-0.7,0.6-1.1c0.1-0.2,0.1-0.4,0.1-0.6c0-0.1-0.1-0.3-0.2-0.5c-0.3-0.7-0.7-1.2-1-1.7
						C56.4,59,56.1,58.4,56.1,58.4z"/>
				</g>
			</g>
			<g>
				<g>
					<circle fill="#726658" cx="40.4" cy="43.9" r="2.7"/>
					<circle cx="40.4" cy="43.9" r="1.2"/>
				</g>
				<g>
					<circle fill="#726658" cx="67.7" cy="43.9" r="2.7"/>
					<circle cx="67.7" cy="43.9" r="1.2"/>
				</g>
			</g>
			<g>
				<path opacity="0.27" fill="#A1DBE5" d="M43.3,36.7H32.8c-2.3,0-4.1,1.9-4.1,4.1v4.3c0,2.3,1.9,4.1,4.1,4.1h10.5
					c2.3,0,4.1-1.9,4.1-4.1v-4.3C47.4,38.6,45.5,36.7,43.3,36.7z"/>
				<path opacity="0.27" fill="#A1DBE5" d="M71.2,36.7H59.4c-1.9,0-3.4,1.6-3.4,3.4v5.6c0,1.9,1.6,3.4,3.4,3.4h11.8
					c1.9,0,3.4-1.6,3.4-3.4v-5.6C74.7,38.3,73.1,36.7,71.2,36.7z"/>
			</g>
			<path d="M72.2,36.6H57.4l-2,0.5c-0.2,0-0.4,0.1-0.5,0.1h-6.3c-0.1,0-0.3,0-0.4,0l-2.6-0.6H31.6c-1.6,0-2.9,1.3-2.9,2.9v0
				c0,0.2,0.1,0.3,0.2,0.4c0.6-1.6,2.1-2.8,3.9-2.8h10.5c1.4,0,2-0.4,3.5,1.5c0.5,0.7,0.7-0.9,1.5-0.9h6.8c0.9,0,0.8,1.7,1.3,0.9
				c0.6-1,1.7-1.4,2.9-1.4h11.8c1.6,0,3,1.1,3.4,2.7c0.1-0.1,0.1-0.2,0.1-0.3v0C74.7,37.9,73.8,36.6,72.2,36.6z"/>
			<path d="M30.7,36.9l-11.8,1.9c-0.7,0.1-0.6,1.1,0.2,1l11.3-2.1C31.1,37.6,31.4,36.8,30.7,36.9z"/>
			<path d="M73.2,36.9l11.4,1.9c0.7,0.1,0.5,1.1-0.2,1l-11-2.1C72.8,37.6,72.5,36.8,73.2,36.9z"/>
			<path fill="#B75E8A" d="M48,74.4c0.1,0,2.1-0.7,5.2-0.4c2.7,0.3,4.1,1.1,4.2,1.2c-0.2,0.8-2.4,1.3-5,1.1
				C50.5,76.1,48.7,75.4,48,74.4z"/>
		</g>
		<g>
			<path fill="#F9F9F9" d="M67.3,120.9c0,0.2,0,0.5,0,0.7c0,0.1,0,0.2,0,0.3c0,0.9-0.2,1.8-0.4,2.7c-1.5,6.7-7.1,11.6-13.9,12.2
				c-0.3,0-0.7,0.1-1,0.1c-0.2,0-0.5,0-0.7,0c-0.1,0-0.1,0-0.2,0c-1,0-1.9-0.2-2.9-0.4c-6.6-1.4-11.6-7.1-12.1-13.9
				c0-0.3-0.1-0.7-0.1-1c0-0.2,0-0.5,0-0.7c0-0.1,0-0.2,0-0.2c0-0.9,0.2-1.9,0.4-2.8c1.5-6.7,7.1-11.6,13.9-12.2
				c0.3,0,0.7-0.1,1-0.1c0.2,0,0.5,0,0.7,0c0.1,0,0.1,0,0.2,0c1,0,1.9,0.2,2.9,0.4c6.6,1.4,11.6,7.1,12.1,13.9
				C67.3,120.2,67.3,120.6,67.3,120.9z M65.3,121.3c0-7.5-6-13.6-13.5-13.7c-7.6-0.1-13.7,6-13.8,13.6c-0.1,7.6,6,13.7,13.6,13.8
				C59.2,135,65.3,128.8,65.3,121.3z"/>
			<path fill="#F9F9F9" d="M51.7,131.6c0.3-1.5,0.6-2.8,1.7-3.9c-0.4-0.3-0.8-0.6-1.3-0.9c-0.3-0.2-0.3-0.7,0-0.9
				c0.7-0.6,1.2-1.3,1.3-2.3c0-0.2,0-0.4,0-0.5c-0.4-0.1-0.8-0.3-1.2-0.4c-0.2-0.1-0.3-0.2-0.3-0.5c0-0.1,0.1-0.2,0.1-0.2
				c0.4-0.3,0.5-0.8,0.4-1.2c-0.2-0.8-0.5-1.6-0.7-2.5c-0.1,0-0.1,0-0.1,0c-0.3,0.8-0.5,1.6-0.8,2.4c-0.1,0.5,0,0.8,0.4,1.2
				c0.3,0.3,0.2,0.6-0.1,0.7c-0.3,0.1-0.7,0.2-1,0.3c-0.2,0-0.2,0.1-0.2,0.3c0,0.9,0.4,1.7,1,2.3c0.1,0.1,0.2,0.2,0.3,0.3
				c0.2,0.1,0.2,0.2,0.2,0.4c0,0.3-0.1,0.4-0.3,0.5c-0.4,0.3-0.8,0.6-1.2,0.9C51,128.8,51.4,130.1,51.7,131.6
				c-3.5-0.1-6.4-1.5-8.4-4.3c-2.5-3.6-2.7-7.4-0.5-11.2c1.9-3.3,4.8-4.9,8.6-5.2c0,0.1-0.1,0.2-0.1,0.2c-1.3,2.5-2.2,5.2-2.7,8
				c-0.2,1.3-0.3,2.7,0,4c0.2,1,0.6,1.9,1.5,2.5c0.3,0.2,0.7,0.4,1.1,0.5c0,0,0,0,0.1,0c0-0.1-0.1-0.2-0.1-0.2
				c-0.4-0.4-0.8-0.8-1.1-1.4c-0.2-0.5-0.3-1-0.3-1.5c0-0.2,0.1-0.2,0.2-0.3c0.3-0.1,0.6-0.2,0.9-0.3c-0.2-0.6-0.4-1.1-0.5-1.7
				c-0.5-1.7-0.5-3.4-0.2-5.2c0.2-1.6,0.6-3.1,1.2-4.5c0.1-0.1,0.1-0.2,0.3-0.2c0.2,0,0.2,0.1,0.3,0.2c0.9,2.3,1.5,4.7,1.4,7.3
				c0,1.3-0.3,2.6-0.8,3.9c0,0.1-0.1,0.1-0.1,0.2c0.3,0.1,0.7,0.2,1,0.3c0.2,0,0.2,0.1,0.2,0.3c0,1.2-0.6,2.1-1.4,2.8
				c-0.1,0.1-0.1,0.2-0.2,0.2c0,0,0,0,0,0.1c0.1,0,0.1,0,0.2,0c1.2-0.4,1.9-1.3,2.3-2.5c0.3-0.9,0.4-1.9,0.3-2.8
				c-0.2-3.4-1.3-6.6-2.8-9.7c0-0.1-0.1-0.1-0.1-0.2c0,0,0,0,0-0.1c3.7,0.2,6.6,1.8,8.5,4.9c2.2,3.7,2.1,7.6-0.3,11.2
				C58.2,130.1,55.3,131.5,51.7,131.6z M46.2,116c-2.8,2.8-2.8,7-1.1,9.6c0.6,1,1.4,1.8,2.4,2.4c1,0.6,2.1,1,3.3,1.1
				c-0.1-0.2-0.2-0.3-0.3-0.5c-0.1-0.3-0.3-0.4-0.6-0.5c-1-0.2-2-0.6-2.8-1.2c-0.4-0.3-0.7-0.6-0.9-1.1c0.1,0.1,0.2,0.2,0.3,0.2
				c-0.5-0.8-1.1-1.7-1.7-2.6c0.1,0,0.1,0,0.1,0.1c0,0,0.1,0.1,0.2,0.1c0-0.2-0.1-0.2-0.1-0.3c-0.4-1.6-0.4-3.1,0.3-4.6
				c0.2-0.5,0.4-0.9,0.3-1.4c0,0,0,0,0,0c0,0.2,0.1,0.3,0.1,0.4c0.4-0.5,0.9-1,1.3-1.5c0.1-0.1,0.1-0.6,0-0.8
				c-0.3-0.5-0.7-0.9-1-1.4c-0.2-0.2-0.3-0.3-0.6-0.3c-0.3,0-0.5,0-0.8,0C45.2,114.7,45.7,115.3,46.2,116z M58.5,123.5
				C58.5,123.5,58.5,123.5,58.5,123.5c-0.6,0.9-1.1,1.8-1.7,2.7c0.1-0.1,0.2-0.2,0.4-0.3c-0.3,0.5-0.7,1-1.2,1.3
				c-0.8,0.5-1.7,0.8-2.7,1.1c-0.1,0-0.2,0-0.2,0.1c-0.2,0.3-0.3,0.5-0.5,0.8c0,0,0,0,0.1,0.1c0.3-0.1,0.6-0.1,0.9-0.2
				c3.2-0.8,5.7-3.6,5.9-6.9c0.1-2.3-0.5-4.2-2.1-5.9c-0.1-0.1-0.1-0.2,0-0.3c0.4-0.6,0.8-1.1,1.2-1.7c0-0.1,0.1-0.1,0.2-0.2
				c-0.4,0-0.7,0-1,0c-0.1,0-0.2,0.1-0.3,0.1c-0.4,0.5-0.8,1-1.1,1.5c-0.2,0.2-0.1,0.6,0.1,0.9c0.4,0.4,0.7,0.9,1.1,1.3
				c0,0,0.1,0.1,0.1,0.2c0.1-0.2,0.1-0.3,0.1-0.5c0,0.1,0,0.1,0,0.2c0,0.3,0,0.6,0.1,0.9c0.6,1.2,0.8,2.5,0.6,3.8
				c-0.1,0.5-0.2,0.9-0.3,1.4C58.3,123.6,58.4,123.6,58.5,123.5z M55.8,114C55.8,114,55.8,114,55.8,114c0,0.1,0,0.1,0,0.2
				c-0.1,1.9-0.3,3.7-0.7,5.6c-0.1,0.3-0.1,0.7-0.1,1c0,0.7,0,1.3-0.1,2c-0.2,1.7-0.9,3-2.7,3.6c-0.2,0-0.2,0.2-0.1,0.3
				c0.1,0.1,0.3,0.2,0.4,0.2c0.6,0,1.2-0.3,1.7-0.7c0.5-0.4,0.8-1,1.1-1.6c0.5-1.2,0.7-2.4,0.8-3.7c0.1-2,0-4-0.2-6
				C55.9,114.5,55.8,114.2,55.8,114z M47.6,113.9C47.6,113.9,47.6,113.9,47.6,113.9c-0.1,0.5-0.1,1.1-0.2,1.6
				c-0.2,2-0.3,4.1-0.1,6.1c0.1,1.1,0.4,2.2,0.9,3.1c0.3,0.7,0.8,1.2,1.5,1.6c0.4,0.2,0.8,0.3,1.2,0.3c0.2,0,0.4-0.1,0.4-0.3
				c0-0.2-0.2-0.2-0.3-0.2c-1-0.4-1.7-1.1-2.1-2c-0.4-0.9-0.5-1.9-0.5-2.9c0-0.4,0-0.8,0-1.2c-0.2-1-0.4-2-0.5-3.1
				C47.7,116,47.7,115,47.6,113.9z M52.5,126.9c0.2,0.1,0.3,0.2,0.4,0.3c0.1,0.1,0.2,0.1,0.4,0.1c0.6-0.1,1.2-0.4,1.7-0.9
				c0.8-0.7,1.3-1.6,1.6-2.6c0.5-1.3,0.7-2.6,0.9-4c0.1-0.5,0.1-1,0.1-1.4c-0.1,0-0.1,0.1-0.1,0.1c-0.4,1.2-0.8,2.4-1.3,3.6
				c0,0.1-0.1,0.2-0.1,0.3c-0.2,0.9-0.4,1.7-0.8,2.5c-0.5,0.9-1.1,1.6-2.1,1.9C53,126.8,52.8,126.8,52.5,126.9z M45.8,118.3
				C45.8,118.3,45.8,118.3,45.8,118.3c0,0.1,0,0.2,0,0.3c0.1,1.3,0.3,2.7,0.6,3.9c0.3,1.2,0.7,2.3,1.5,3.2c0.6,0.7,1.3,1.3,2.2,1.4
				c0.1,0,0.1,0,0.2,0c0.2-0.1,0.4-0.3,0.6-0.4c-0.1,0-0.1,0-0.1,0c-0.7-0.1-1.2-0.3-1.7-0.8c-0.7-0.6-1.1-1.4-1.4-2.3
				c-0.3-1-0.5-2-1-3c-0.1-0.2-0.2-0.4-0.2-0.6C46.2,119.6,46,119,45.8,118.3z M58,124.2c-0.9,0.7-1.9,1.5-2.8,2.2
				c-0.5,0.4-1,0.7-1.6,0.9c-0.1,0-0.2,0.1-0.3,0.1c0.2,0.2,0.3,0.2,0.6,0.2c0.9-0.2,1.6-0.7,2.3-1.3
				C56.8,125.7,57.4,124.9,58,124.2z M50.1,127.4c-0.4-0.2-0.9-0.4-1.3-0.7c-1.1-0.8-2.2-1.7-3.3-2.6c0,0-0.1-0.1-0.1-0.1
				c0.5,0.8,1.1,1.5,1.7,2.1c0.7,0.6,1.5,1.1,2.4,1.4C49.8,127.6,50,127.6,50.1,127.4z M55.5,115.7c0.1-0.2,0.2-1.1,0.2-1.5
				c-0.1,0.2-0.2,0.3-0.3,0.5c-0.6-0.2-1.3-0.5-1.9-0.7c0,0,0,0,0,0.1c0.1,0.3,0.2,0.6,0.3,0.9c0,0,0.1,0.1,0.1,0.1
				C54.4,115.2,54.9,115.5,55.5,115.7z M50,114C49.9,114,49.9,114,50,114c-0.7,0.2-1.3,0.4-1.9,0.6c-0.1-0.1-0.2-0.3-0.3-0.4
				c0,0,0,0-0.1,0c0.1,0.5,0,1,0.2,1.5c0.6-0.3,1.1-0.5,1.7-0.8c0,0,0.1,0,0.1-0.1C49.8,114.6,49.9,114.3,50,114z M50.4,114.7
				c0.8,0,1.7,0,2.5,0c0-0.2-0.1-0.4-0.2-0.7c0-0.1-0.1-0.2-0.2-0.2c-0.6,0-1.2,0-1.8,0c-0.1,0-0.2,0.1-0.2,0.1
				C50.5,114.2,50.5,114.5,50.4,114.7z M56.7,126.4c-1,0.5-2,1-3,1.3c-0.2,0.1-0.3,0.3-0.5,0.4c0,0,0,0,0.1,0.1
				C54.5,127.8,55.8,127.4,56.7,126.4z M50.1,128.2C50.1,128.1,50.1,128.1,50.1,128.2c-0.1-0.2-0.3-0.4-0.5-0.5
				c-0.8-0.3-1.5-0.6-2.3-0.9c-0.2-0.1-0.4-0.2-0.6-0.3c0,0-0.1,0-0.1-0.1C47.5,127.4,48.8,127.9,50.1,128.2z M57,113.6
				c-0.2-0.2-0.4-0.4-0.6-0.6c-0.1,0.2-0.2,0.3-0.2,0.4c-0.1,0.1-0.2,0.3-0.2,0.4c0,0.4,0.1,0.7,0.1,1.1
				C56.3,114.5,56.6,114,57,113.6z M47,113c-0.1,0.1-0.2,0.2-0.3,0.3c-0.3,0.3-0.3,0.3-0.1,0.6c0.2,0.3,0.5,0.7,0.7,1
				C47.6,114,47.5,113.6,47,113z M47.6,125.6c-0.2-0.4-0.4-0.8-0.6-1.2c-0.2-0.6-0.5-1.1-0.9-1.6c-0.1-0.1-0.1-0.2-0.2-0.3
				c-0.1-0.1-0.1-0.2-0.2-0.3C46.1,123.5,46.7,124.7,47.6,125.6z M57.7,122.3c-0.3,0.4-0.6,0.7-0.8,1.1c-0.1,0.2-0.2,0.4-0.3,0.5
				c-0.3,0.5-0.5,1-0.8,1.5c0,0,0,0.1-0.1,0.1C56.7,124.7,57.3,123.5,57.7,122.3z M43.4,123.7c-0.1,0-0.3,0-0.3-0.1
				c-0.1-0.1-0.1-0.2-0.2-0.3c-0.1,0.1-0.1,0.2-0.2,0.3c-0.1,0.1-0.2,0.1-0.2,0.1c0.1,0.2,0.1,0.4,0.2,0.6c0.1-0.1,0.3-0.1,0.6,0
				C43.1,124,43.2,123.8,43.4,123.7z M60.7,124.2c-0.1-0.2,0-0.4,0.2-0.6c-0.3,0-0.4-0.1-0.5-0.4c-0.1,0.3-0.2,0.3-0.5,0.4
				c0.2,0.1,0.2,0.3,0.2,0.6C60.3,124.1,60.5,124.1,60.7,124.2z M48.2,112.5c0.2,0.2,0.3,0.3,0.2,0.6c0.2-0.2,0.4-0.1,0.6,0
				c-0.1-0.2,0-0.4,0.2-0.6c-0.3,0-0.4-0.1-0.5-0.3C48.6,112.4,48.5,112.5,48.2,112.5z M54.1,112.5c0.3,0.1,0.2,0.3,0.2,0.6
				c0.2-0.2,0.4-0.1,0.6,0c-0.1-0.3,0-0.4,0.2-0.6c-0.3,0-0.4-0.1-0.5-0.4C54.5,112.4,54.4,112.5,54.1,112.5z M43.6,116.6
				c-0.1,0.3-0.2,0.3-0.5,0.4c0.2,0.2,0.3,0.4,0.2,0.6c0.2-0.2,0.4-0.1,0.5,0c0.1-0.2,0.1-0.4,0.2-0.6
				C43.8,116.9,43.7,116.8,43.6,116.6z M59.3,117c0.2,0.1,0.2,0.3,0.1,0.5c0.2-0.2,0.4-0.1,0.6,0c-0.1-0.2,0-0.4,0.2-0.6
				c-0.3,0-0.4-0.1-0.4-0.3C59.6,116.7,59.5,116.9,59.3,117z M48.7,129.6c-0.2,0.1-0.3-0.1-0.4-0.3c-0.1,0.1-0.1,0.2-0.2,0.3
				c-0.1,0.1-0.2,0-0.4,0.1c0.3,0.1,0.3,0.3,0.2,0.6c0.2-0.3,0.4-0.2,0.6-0.1C48.6,129.9,48.7,129.8,48.7,129.6z M60.2,120.3
				c0.2,0.1,0.2,0.3,0.2,0.6c0.2-0.2,0.4-0.1,0.6,0c-0.1-0.3,0-0.4,0.2-0.6c-0.3,0-0.4-0.1-0.5-0.3
				C60.6,120.2,60.5,120.3,60.2,120.3z M55.5,129.6c-0.3,0-0.4-0.1-0.5-0.3c-0.1,0.3-0.2,0.3-0.5,0.4c0.2,0.2,0.3,0.3,0.2,0.5
				c0.2,0,0.4,0,0.6,0C55.3,129.9,55.3,129.7,55.5,129.6z M42.1,120.3c0.2,0.1,0.2,0.3,0.2,0.6c0.2-0.2,0.4-0.1,0.6,0
				c-0.1-0.3,0-0.4,0.2-0.6c-0.3,0-0.4-0.1-0.5-0.4C42.5,120.2,42.4,120.3,42.1,120.3z M58.5,126.8c-0.1,0.3-0.2,0.3-0.5,0.4
				c0.2,0.2,0.3,0.3,0.2,0.6c0.2-0.1,0.4-0.1,0.6,0c-0.1-0.3,0-0.4,0.2-0.6C58.7,127.2,58.6,127.1,58.5,126.8z M44.6,127.7
				c0.1-0.1,0.3-0.1,0.5,0c-0.1-0.2,0-0.4,0.2-0.6c-0.3,0-0.4-0.1-0.5-0.3c-0.1,0.2-0.2,0.3-0.4,0.3
				C44.5,127.4,44.5,127.5,44.6,127.7z"/>
			<path fill="#F9F9F9" d="M60.9,115.6c-0.5-0.6-1-1.3-1.6-1.9c-1.7-1.7-3.8-2.7-6.2-3.1c-0.3,0-0.6-0.1-0.8-0.1
				c-0.1,0-0.2,0-0.2-0.1c0-0.6,0-1.2,0-1.8c0.3,0,0.7,0,1,0.1c3.7,0.4,6.7,2.2,8.9,5.1c0.1,0.2,0.2,0.3,0,0.5
				C61.6,114.7,61.2,115.1,60.9,115.6C60.9,115.6,60.9,115.6,60.9,115.6z"/>
			<path fill="#F9F9F9" d="M51.2,108.6c0,0.7,0,1.3,0,1.9c-3.8,0.2-6.7,2-8.7,5.1c-0.1-0.1-0.1-0.1-0.1-0.1c-0.3-0.4-0.7-0.9-1-1.3
				c-0.1-0.1-0.1-0.2,0-0.3c1.7-2.3,4-3.9,6.7-4.8c0.9-0.3,1.8-0.4,2.8-0.5C51,108.6,51.1,108.6,51.2,108.6z"/>
			<path fill="#F9F9F9" d="M40.7,114.9c0.4,0.5,0.8,1.1,1.3,1.6c0,0,0,0.1,0,0.2c-0.6,1.4-1,2.8-1,4.3c0,0,0,0,0,0
				c0,0-0.1,0-0.1-0.1c-0.5-0.4-1.1-0.8-1.6-1.2c-0.1,0-0.1-0.2-0.1-0.2c0.2-1.6,0.7-3.1,1.5-4.5C40.6,115,40.6,114.9,40.7,114.9z"
				/>
			<path fill="#F9F9F9" d="M62.5,120.9c-0.1-0.6-0.1-1.1-0.2-1.7c-0.1-0.9-0.4-1.7-0.8-2.5c-0.1-0.2-0.1-0.2,0-0.4
				c0.4-0.5,0.8-1,1.2-1.5c0,0.1,0.1,0.1,0.1,0.2c0.8,1.4,1.3,2.8,1.5,4.4c0,0.1,0,0.2-0.1,0.2C63.6,120.1,63,120.5,62.5,120.9z"/>
			<path fill="#F9F9F9" d="M39,120.7c0.7,0.5,1.3,1,1.9,1.4c0,0,0.1,0.1,0.1,0.2c0.1,1.2,0.4,2.3,0.9,3.4c0,0,0,0.1,0,0.1
				c-0.2-0.1-0.4-0.1-0.6-0.2c-0.5-0.2-1.1-0.3-1.6-0.5c-0.1,0-0.2-0.1-0.2-0.2c-0.4-1.3-0.6-2.7-0.6-4.1
				C38.9,120.9,39,120.8,39,120.7z"/>
			<path fill="#F9F9F9" d="M61.4,125.8c0.2-0.5,0.4-0.9,0.5-1.3c0.2-0.7,0.3-1.4,0.4-2.1c0-0.1,0.1-0.2,0.1-0.3
				c0.6-0.5,1.2-0.9,1.8-1.3c0,0,0,0,0.1-0.1c0,0.5,0,1,0,1.4c-0.1,0.9-0.2,1.9-0.5,2.8c0,0.2-0.1,0.2-0.3,0.3
				C62.9,125.4,62.2,125.6,61.4,125.8z"/>
			<path fill="#F9F9F9" d="M63.4,126.2c-0.1,0.3-0.2,0.5-0.4,0.8c-0.4,0.9-1,1.7-1.6,2.4c-0.1,0.1-0.1,0.1-0.2,0.1
				c-0.8,0-1.6-0.1-2.5-0.1c0.1-0.1,0.1-0.1,0.1-0.2c0.7-0.6,1.3-1.4,1.9-2.2c0-0.1,0.1-0.2,0.2-0.2c0.8-0.2,1.6-0.5,2.4-0.7
				C63.3,126.2,63.3,126.2,63.4,126.2z"/>
			<path fill="#F9F9F9" d="M44.6,129.4c-0.9,0.1-1.7,0.1-2.5,0.1c-0.1,0-0.1,0-0.2-0.1c-0.8-1-1.5-2.1-2-3.3c0.1,0,0.1,0,0.2,0
				c0.8,0.2,1.5,0.4,2.3,0.7c0.1,0,0.2,0.1,0.2,0.1C43.2,127.9,43.8,128.7,44.6,129.4C44.6,129.4,44.6,129.4,44.6,129.4z"/>
			<path fill="#F9F9F9" d="M47.3,131.1c-0.1,0.1-0.3,0.2-0.4,0.3c-0.4,0.3-0.9,0.6-1.4,0.8c-0.1,0-0.2,0-0.3,0
				c-0.8-0.5-1.6-1.1-2.3-1.7c0,0,0,0-0.1-0.1c0.4,0,0.8-0.1,1.2-0.1c0.5,0,1-0.1,1.5-0.1c0.1,0,0.1,0,0.2,0
				C46.3,130.6,46.8,130.8,47.3,131.1z"/>
			<path fill="#F9F9F9" d="M56,131.1c0.4-0.2,0.8-0.4,1.2-0.7c0.3-0.2,0.5-0.2,0.8-0.2c0.7,0.1,1.5,0.1,2.2,0.1c0.1,0,0.1,0,0.2,0
				c0,0.1-0.1,0.1-0.1,0.1c-0.7,0.6-1.4,1.2-2.2,1.7c-0.1,0-0.2,0.1-0.3,0C57.2,131.9,56.7,131.5,56,131.1
				C56.1,131.2,56,131.1,56,131.1z"/>
			<path fill="#F9F9F9" d="M49.7,131.8c-0.3,0.6-0.7,1.1-1,1.7c0,0-0.1,0.1-0.1,0.1c-0.7-0.2-1.4-0.4-2.1-0.7
				c0.1-0.1,0.1-0.1,0.2-0.1c0.6-0.4,1.2-0.7,1.8-1.1c0.1,0,0.2-0.1,0.3,0C49,131.7,49.3,131.7,49.7,131.8z"/>
			<path fill="#F9F9F9" d="M53.7,131.8c0.4-0.1,0.7-0.2,1.1-0.3c0.1,0,0.1,0,0.2,0c0.6,0.4,1.3,0.8,1.9,1.2c0,0,0,0,0.1,0.1
				c-0.4,0.2-0.8,0.3-1.2,0.4c-0.3,0.1-0.6,0.2-0.9,0.2c-0.1,0-0.2,0-0.2,0C54.3,133,54,132.4,53.7,131.8z"/>
			<path fill="#F9F9F9" d="M51.2,132c0,0.7,0,1.3,0,2c-0.6-0.1-1.1-0.1-1.7-0.2c0-0.1,0-0.1,0-0.1c0.3-0.6,0.7-1.1,1-1.7
				c0,0,0.1-0.1,0.2-0.1C50.9,132,51,132,51.2,132z"/>
			<path fill="#F9F9F9" d="M53.8,133.8c-0.6,0.1-1.2,0.1-1.8,0.2c0-0.1,0-0.1,0-0.2c0-0.6,0-1.1,0-1.7c0-0.1,0-0.2,0.2-0.2
				c0.4-0.1,0.6,0.1,0.8,0.4C53.3,132.9,53.5,133.3,53.8,133.8z"/>
		</g>
	</g>
</g>
</svg>
