<svg xmlns="http://www.w3.org/2000/svg" viewBox="0 0 1700.8 2267.7"><path fill="#545554" d="M313.8 1738.7h865.6c6.6 0 12-5.4 12-12V770.4c0-6.6-5.4-12-12-12H313.8c-6.6 0-12 5.4-12 12v956.2c0 6.7 5.4 12.1 12 12.1z"/><path fill="#3D5E80" d="M1184.8 1172.1c18.1 36.7-108.5 122.4-138.5 92.1-253-255-219.6-278.9-204.3-295.8 8.7-9.6 46.2.7 103.8-23.8 16.7-7.1 27-13.7 34.5-19.2 17.6-13 43-13.6 59.5-1.1 36.2 27.3 28 37.2 145 247.8z"/><path fill="#E3A47A" d="M1461.8 1264.8c55.9 28.6 86.6 77.4 68.6 108.9s-78 33.9-133.9 5.2-86.6-77.4-68.6-108.9 78-33.8 133.9-5.2z"/><path fill="#3D5E80" d="M1391.3 1239.5c36.4 22.3 6.2 127.7-34.2 114-340.4-114.7-333.3-143.5-333.9-161.2-.3-10.1 32.1-14.1 55.4-51 6.8-10.7 9.5-19 11-25.6 3.5-15.5 20.5-24 40-19.7 42.5 9.6 43.4 19.6 261.7 143.5z"/><path fill="#0B142D" d="M1460.1 1247.8c6.2.3 15.1.9 25.3 6 7.7 3.9 14.4 9.4 19.8 16.2-2.9-2.4-7.2-5-12-4.5-3.5.4-5.8 2.2-6.7 2.8-11.2 8-33.4-4.6-45 2.8-9.7 6.2-8.5 23.9-7.4 39.4 1 14.9 2.2 31.9 13 37.9 6.8 3.8 17.5 3.2 35.6 2.2.4 0 4.6-.3 10 .5s8.5 1.2 8.9 2.6c1 3.7-18.6 17-41.5 18-7.5.3-22.3 1-34-8.3-13.9-11.1-14.8-29.3-16-53.6-1.2-25.2-2.1-43.6 10.4-54.2 11.1-9.4 27.5-8.5 39.6-7.8z"/><path fill="#0B142D" d="M1623.9 1413.7c-21.3 3.3-46.5 5.8-74.9 5.6-25.6-.2-48.6-2.4-68.3-5.5-1 0-6.3-.1-10.7-4.4-2.7-2.7-4.4-6.5-4.4-10.7l-.1-173.7c0-8.3 6.7-15.1 15.1-15.1 19.8-4.1 44.8-7.5 73.8-7.3 27 .1 50.5 3.4 69.4 7.2 1 0 6.3.1 10.7 4.4 2.7 2.7 4.4 6.5 4.4 10.7l.1 173.7c0 8.3-6.8 15.1-15.1 15.1z"/><path fill="#26A9E0" d="M1528.3 1281.1c3.5-5.2 6.8-10.6 10.5-15.6 4.6-6.2 10.3-11.5 17.3-15 12-6 24.4-3 32.5 7.8 5.6 7.5 8.5 16.1 10.2 25.1 3.1 16.6 1.1 32.8-3.6 48.8-3 10.1-6.7 20-12.4 29-5.1 8.2-11.3 15.5-19.8 20.5-7.7 4.5-16 6.3-24.5 2.8-2.8-1.1-5.4-3-7.6-5-7.6-7.1-12.2-15.9-14.5-26-3-13.2-2.7-26.5-.6-39.8 2.6-16 7.4-31.3 15.5-45.4 1.4-2.5 3.1-4.8 4.7-7.1.4-.5 1.3-.6 1.9-.9-.1.7 0 1.5-.2 2-2.9 5.8-5.8 11.6-8.8 17.4l-.6 1.5c.1 0 .1-.1 0-.1zm2.8 61.6c.2-.1.4-.1.7-.2.4.8.8 1.6 1.1 2.4 1.7 5.4 3.7 10.6 7.2 15.1 4.4 5.6 9.8 8.9 17.2 7.5 3.9-.8 7.3-2.8 10.3-5.3 6.2-5.3 10.5-11.9 13.8-19.2 8.3-18.3 11.3-37.5 8.9-57.5-.3-2.8-1-5.5-1.5-8.3-.3.7-.4 1.4-.3 2 1.1 11.2-.3 22.1-3.6 32.9-.2.8-1 1.4-1.5 2.1-.1-.9-.4-1.8-.2-2.7 2.2-9.3 3.2-18.8 1.9-28.3-.9-6.2-2.6-12.2-6.4-17.3-4.2-5.8-9.5-8.1-15.8-6.2-2.8.8-5.6 2.3-8 4-4.9 3.4-8.6 8.1-11.7 13.1-14.4 23.3-19.8 48.4-14.9 75.5 1.3 7.3 4.2 14.1 9.3 19.8 5.9 6.7 15.4 8.4 23.1 3.9-1.2.1-2 .2-2.8.2-1.9-.1-3.8 0-5.5-.5-5.5-1.3-9.4-5-12.5-9.6-4.2-6.2-6.6-13.1-8.1-20.4-.6-1-.6-2-.7-3z"/><path fill="#E3A47A" d="M1484.8 1264.9c25.7.1 47 10.7 47.8 23.6.7 12.9-19.5 23.3-45.2 23.2-25.7-.1-47-10.7-47.8-23.6-.7-13 19.5-23.4 45.2-23.2z"/><path fill="#31516C" d="M1315.1 1341.1c14.7 4.3 29.8 8.7 46 13.2 41.2 11.6 66.3-95.4 28.7-115.9-16.4-8.3-31.5-15.9-45.6-23.1 20.6 34.8 3.2 110.4-29.1 125.8z"/><path fill="#3D5E80" d="M521.1 889.2c-53.9 201.6-78.6 372.5-90.8 499.4-16.7 173.6-7.7 241.1 41.5 290.8 66.7 67.5 174.4 68.9 296.5 70.5 127.5 1.7 256.7 3.4 328.4-73.4 35.8-38.4 56.6-75.2 25.5-287.8-17.2-117.5-50.5-304.7-121.2-502.3-159.9.9-319.9 1.8-479.9 2.8z"/><ellipse fill="#E3A47A" cx="761" cy="974.3" rx="125.7" ry="79.1"/><path fill="#3D5E80" d="M844.5 1127.2l-74.9-41.3 62-127.7 74.9 41.4"/><path fill="#31516C" d="M721.8 1083h87v666.9h-87z"/><path fill="#31516C" d="M808.1 1082.5l-70 49.3-99.7-126.9 69.9-49.4"/><path fill="#31516C" d="M520.9 888.4l137.2 158.7 50.2-90.6m293.4-68.5l-121.5 143.2-50.8-73.7"/><circle fill="#431117" cx="765.9" cy="1105.7" r="18.5"/><circle fill="#431117" cx="765.9" cy="1297.3" r="18.5"/><circle fill="#431117" cx="765.9" cy="1488.8" r="18.5"/><circle fill="#431117" cx="765.9" cy="1680.3" r="18.5"/><path fill="#E3A47A" d="M1070.3 416.6c15.6-5.8 37.8 13.7 47.4 30.9 28.8 51.8-30.4 130.6-51.6 125.8-25.6-5.8-30.7-143.7 4.2-156.7zm-619.9 0c-15.6-5.8-37.8 13.7-47.4 30.9-28.8 51.8 30.4 130.6 51.6 125.8 25.7-5.8 30.8-143.7-4.2-156.7z"/><path fill="#603813" d="M1090.5 367.9c-5.7-28.4-1.9-57.5-.1-86.2 1.8-28.8 1.4-58.6-12-85s-42.6-48.4-75.7-47.9c1.1-2.4 5-9.5 14-13.2 10.6-4.4 24.1-2.3 34 5.4-9.3-9.4-22.5-21-40.5-31.7-24.6-14.7-48.3-22-64.7-25.9 11.6-7.1 40.7-22.8 76.4-18.4 6.8.8 13 2.3 18.5 4-7.4-6.6-19-15.4-35.1-22.9-44.5-20.8-88.9-15.2-117.4-11.7C831 41.5 789 63.5 765.2 78.8 778 51.9 807 31.4 839.7 26.1c6.9-1.7 13.7-3.5 20.6-5.2-9-2.3-22-5-37.9-6.5-40.4-3.8-69.5 3-120.4 16 0 0-81.3 21-131.6 49.3-8.7 4.9-16.4 10.1-16.4 10.1-3.5 2.4-6.7 4.7-9.7 6.9-1.5-3.8-4.2-12-2.3-22.4 2-10.7 8-17.9 10.9-21-6.3 1.6-17 5.1-27 13.3-18 14.7-20.4 33.7-20.8 38.9-2.3-2.3-5.7-6.3-7.5-12-3.5-10.7.8-19.8 2.2-22.6-6.9 4.1-49.4 30.1-54.7 76.4-2.5 21.8 4.3 39.4 9.2 49.2-9 23.4-20.2 58.5-24.6 101.9-5.8 56.8 12.1 88 10.3 135.6-16.3 440.9 147 514.4 326.6 514.4 163.3 0 285.9-107.4 302.1-183.7 15-70.3 27.9-140.9 29.7-256.7.7-46.8 1.4-94-7.9-140.1z"/><path fill="#E3A47A" d="M600.1 302c41.1-7.5 50-2.6 86-6.8 89-10.2 118.4-50 177.5-36.5 16.3 3.7 28.5 10 35.6 14.2-5.5-1.2-11.9-1.9-18.9-1.3-31.8 2.6-50.5 28.8-53.7 33.5 24.2-4.6 148.4-26.3 208.5 38.1 9.1 9.7 14.2 18.7 17.3 24.2 30.7 54.7 1 88.5-.5 184-.8 55.7 8.9 73.6-8.8 104.3-16.1 27.9-41.2 42.7-49.6 47.6-48.9 28.3-100.5 21.8-153.1 18.7-197.5-11.6-231.8 9.5-308.1-13.1-35-10.4-48.8-48.1-54.2-81.1-8.5-51.7-8.6-104.3-8.6-156.7 0-20.6 0-41.2-.1-61.8 0-13.3 0-27.1 5.4-39.5 9-21.1 29.1-31.8 48-42.1 16.7-9 39.6-18.8 77.3-25.7z"/><path fill="#8A5D3B" d="M806.5 612s1.1 1.2 3.1 3.4c1 1.1 2.2 2.5 3.6 4.2 1.4 1.6 3 3.6 4.8 5.7 3.5 4.4 7.8 9.7 12 16.5l1.5 2.7c.2.5.5 1 .7 1.5l.3.9.1.3v.9c0 .5.1 1 .1 1.6 0 .6 0 1.2-.1 1.8 0 .6-.1 1.2-.2 1.8l-.1.9-.2.9c-.5 2.3-1.3 4.6-2.4 6.8-1.1 2.2-2.4 4.3-3.9 6.3-6.1 8.1-14.4 14.9-24 20.8-1.2.7-2.4 1.5-3.7 2.2-1.3.7-2.6 1.4-3.9 2-2.7 1.2-5.4 2.3-8.2 3.3-5.6 2-11.6 3.5-17.8 4.4-6.2.9-12.6 1.1-19.1.5-6.5-.7-13-2.2-19.2-4.8-1.6-.6-3.1-1.4-4.6-2.1-.8-.4-1.5-.8-2.2-1.2-.7-.4-1.5-.8-2.2-1.3l-2.1-1.3-.3-.2-.1-.1c-.1-.1.1 0-.3-.2l-.5-.4-1-.7-1.9-1.4-1-.7-.5-.4-.5-.4-3.9-3.4-3.6-3.6c-.6-.6-1.1-1.2-1.7-1.9l-1.6-2c-1.1-1.3-2-2.7-3-4.1-3.8-5.6-6.8-11.7-9.1-18-.6-1.6-1-3.2-1.6-4.8-.4-1.6-.9-3.2-1.3-4.8-.8-3.2-1.3-6.5-1.7-9.9v-2.6c0-.8.1-1.8.1-2.8.2-1.8.5-3.5.9-5.3.9-3.4 2.4-6.7 4.3-9.5 3.7-5.7 8.5-10.1 12.7-14.2 4.2-4.1 8.1-8.2 10-12.7 1-2.2 1.4-4.6 1.4-7v-.9c0-.3-.1-.6-.1-.9-.1-.6-.1-1.2-.3-1.8l-.2-.9-.1-.5-.1-.6c-.2-.7-.3-1.3-.5-2-2.5-11.2-2.4-21.9-1.7-31.6.7-9.7 2.2-18.4 3.6-26.1 1.4-7.7 2.8-14.3 3.6-19.8.9-5.5 1.2-9.9 1.2-12.9 0-.7 0-1.4-.1-2 0-.6-.1-1-.1-1.4-.1-.8-.1-1.2-.1-1.2s.1.4.3 1.1c.1.4.2.9.3 1.4.1.6.2 1.2.3 2 .3 3 .4 7.5 0 13.1s-1.2 12.4-2.1 20.1c-.9 7.7-1.8 16.4-2 25.9-.1 4.7 0 9.6.5 14.7.4 5 1.2 10.2 2.5 15.3.2.7.4 1.3.5 2 .2.7.3 1.4.5 2.1.2.7.3 1.5.4 2.3.1.4.1.8.2 1.2l.1 1.2c.2 3.2-.4 6.6-1.6 9.7-1.2 3.1-3 5.9-5 8.3-2 2.5-4.1 4.7-6.2 6.9-4.2 4.3-8.4 8.4-11.3 13.2-2.9 4.7-4.2 10-3.9 15.4.3 2.9.8 5.9 1.6 8.8.3 1.5.8 2.9 1.2 4.4.5 1.4.9 2.9 1.4 4.3 2.1 5.7 4.8 11.1 8.2 16.1.9 1.2 1.7 2.5 2.7 3.7l1.4 1.8c.5.6.9 1.2 1.5 1.7 1 1.1 2.1 2.2 3.1 3.2l3.2 2.9.4.4.5.4 1 .7 1.9 1.4 1 .7.5.4c-.3-.2 0 0 0 0l.1.1.2.1 1.9 1.2c.6.4 1.3.8 1.9 1.1.7.4 1.3.7 2 1.1 1.3.6 2.6 1.3 4 1.9 5.4 2.3 11.2 3.8 16.9 4.5 5.8.7 11.6.7 17.3 0 5.7-.7 11.3-2 16.6-3.6 2.7-.8 5.2-1.8 7.7-2.8 1.3-.5 2.5-1.1 3.6-1.7 1.2-.6 2.4-1.2 3.5-1.9 4.7-2.6 9-5.5 13-8.6 4-3.1 7.5-6.4 10.4-9.9 2.9-3.5 5.1-7.3 6.2-11.2l.2-.7.1-.7c.1-.5.2-1 .3-1.4.1-.5.1-.9.2-1.4v-2s0-.2 0 0v.1-.1c0-.2-.1-.4-.2-.6-.1-.4-.3-.9-.5-1.3-.4-.9-.8-1.7-1.2-2.6-3.6-6.7-7.4-12.4-10.6-17-3.2-4.6-5.7-8.2-7.5-10.6-1.4-2.5-2.4-3.8-2.4-3.8z" opacity=".6"/><circle fill="#716558" cx="627.5" cy="486.2" r="27.2"/><circle cx="627.5" cy="486.2" r="12.1"/><circle fill="#716558" cx="903.8" cy="486.2" r="27.2"/><circle cx="903.8" cy="486.2" r="12.1"/><path opacity=".3" fill="#A0DAE4" d="M677.2 391.8H570.9c-22.9 0-41.7 18.8-41.7 41.7v43.1c0 22.9 18.8 41.7 41.7 41.7h106.3c22.9 0 41.7-18.8 41.7-41.7v-43.1c0-22.9-18.8-41.7-41.7-41.7zm283.1 0H840.4c-19.2 0-34.9 15.7-34.9 34.9v56.6c0 19.2 15.7 34.9 34.9 34.9h119.9c19.2 0 34.9-15.7 34.9-34.9v-56.6c0-19.2-15.7-34.9-34.9-34.9z"/><path fill="#231F20" d="M969.8 390.9H820.2l-20.2 5.5c-1.8.5-3.7.7-5.5.7h-64.3c-1.5 0-3-.2-4.5-.5l-26.5-5.7H558.7c-16.3 0-29.6 13.3-29.6 29.6 0 1.6.9 3 2.3 3.7 5.6-16.4 21.2-28.2 39.4-28.2h106.3c14 0 20.5-4.2 35.5 15.5 5.4 7.1 7-9.6 15.3-9.6h69.4c8.8 0 7.8 17.7 13.3 8.7 6.4-10.4 17.2-14.6 29.7-14.6h119.9c16.5 0 30.4 11.6 34 27.1.6-.7.9-1.6.9-2.5.1-16.4-9.1-29.7-25.3-29.7z"/><path d="M549.5 393.6l-119.2 19.6c-7.3 1.2-5.6 11.4 1.7 10.2l114.9-21.7c7.3-1.2 9.9-9.3 2.6-8.1zm431.1.7l115.1 19c7.1 1.2 5.4 11.3-1.7 10.2l-111-21c-7-1.2-9.4-9.4-2.4-8.2z"/><path fill="#B65D89" d="M663 765.1c67.9-2.9 135.7-5.8 203.6-8.7-18 48.1-58.4 80.1-102.7 81.3-43.2 1.1-82.7-27.3-100.9-72.6z"/><path fill="#DDDDDC" d="M868.2 755.7c-1.6-3.9-205.2 4.5-206.9 9.2 2.6 4.4 9.7 17.3 14.3 24.4 1.5 2.4 3.5 3.6 5.7 3.5 54.8-1.7 109.6-3.3 164.4-5 1.8-.1 3.6-1 5-3 5.5-7.9 14.1-22.5 17.5-29.1z"/><path fill="#0E2B47" d="M773.1 2208.4l-323.7-3.1c-3.7 0-6.7-3.1-6.7-6.8l7.7-795.7c0-3.7 3.1-6.7 6.8-6.7l323.7 3.1c3.7 0 6.7 3.1 6.7 6.8l-7.7 795.7c0 3.7-3 6.7-6.8 6.7z"/><path fill="#0E2B47" d="M1129.3 2199.7l-323.4 13.7c-3.7.2-6.9-2.8-7-6.5l-33.6-795.1c-.2-3.7 2.8-6.9 6.5-7l323.4-13.7c3.7-.2 6.9 2.8 7 6.5l33.6 795.1c.1 3.6-2.8 6.8-6.5 7z"/><path d="M439.8 2187c0 21 28.7 25 62.8 22.4 75-5.8 150.3-5.8 225.2 0 34.2 2.7 62.8-1.4 62.8-22.4 0-51.9-78.5-125.4-175.4-125.4S439.8 2135 439.8 2187zm350.8 0c0 21 28.7 25 62.8 22.4 75-5.8 150.3-5.8 225.2 0 34.2 2.7 62.8-1.4 62.8-22.4 0-51.9-78.5-125.4-175.4-125.4S790.6 2135 790.6 2187z"/><path fill="#050505" d="M1082.5 1683.8c-69.1 69.7-193.8 68.2-316.8 66.6-117.8-1.5-221.7-2.7-286-64-28.5-27.1-42.9-60.3-46.5-116.5-4.7 98.7 8.4 145.4 46.5 181.7 64.3 61.2 168.2 62.5 286 64 123 1.5 247.7 3.1 316.8-66.6 26.4-26.6 44.3-52.4 38-148.6-4.3 45.3-18.9 64.2-38 83.4z"/><circle fill="#431117" cx="763.3" cy="1687.3" r="18.5"/><path fill="#686666" d="M842.2 1816.1H714.6c-.9 0-1.6-.7-1.6-1.6v-57.2c0-.9.7-1.6 1.6-1.6h127.6c.9 0 1.6.7 1.6 1.6v57.2c0 .9-.7 1.6-1.6 1.6z"/><path fill="#3D5E80" d="M398.6 1339.4c-31.6 27.6-143.8-81.8-121.1-120.2 191-323.2 221.9-294.7 241.7-283 11.3 6.6 9.8 47.8 46.7 101.2 10.7 15.5 19.4 24.4 26.5 30.8 16.6 14.9 23 41 14.6 61.1-18.3 43.9-29.7 37.9-208.4 210.1zm173.9 208.5c34.9 30.2 57.1 63.7 49.8 74.8-7.4 11.1-41.6-4.4-76.4-34.5s-57.1-63.7-49.8-74.8c7.4-11.1 41.6 4.4 76.4 34.5z"/><path fill="#3D5E80" d="M583.3 1584.3c25.4 61.9 18.8 122.7-14.8 136-33.6 13.2-81.4-26.2-106.8-88-25.4-61.9-18.8-122.7 14.8-136s81.4 26.1 106.8 88z"/><path fill="#3D5E80" d="M544.6 1515c14.3 43.3-74.7 108.2-97.5 69.3-191.8-328.1-168.4-346.6-157.8-361.4 6-8.4 33.6 10.6 74.6-3.3 11.9-4.1 19.1-8.9 24.4-13.3 12.3-10.2 30.8-5.4 43.2 11.5 27 37.1 21.3 45.9 113.1 297.2z"/><path fill="#2D2D2D" d="M1085.2 616.7h82c1.8 0 3.3-1.5 3.3-3.3V358.9c0-1.8-1.5-3.3-3.3-3.3h-82c-1.8 0-3.3 1.5-3.3 3.3v254.5c0 1.8 1.5 3.3 3.3 3.3zm-717.7 0h82c1.8 0 3.3-1.5 3.3-3.3V358.9c0-1.8-1.5-3.3-3.3-3.3h-82c-1.8 0-3.3 1.5-3.3 3.3v254.5c0 1.8 1.5 3.3 3.3 3.3z"/><path fill="#2D2D2D" d="M917.8 87.3H631c-250.3-4.4-227.4 322.5-227.4 322.5 0 23 6.8 44.7 18.8 63.8-.1-2.2-.4-4.4-.4-6.6 0 0 4.1-339 209-333.1h286.8c229.4 7 203.1 333.1 203.1 333.1 0 2.2-17.1 3.8-17.3 6 11.9-19.1 35.6-40.2 35.6-63.3.1.1 60.2-323.6-221.4-322.4z"/><path fill="#6E4523" d="M22.9 1495.1h1654.7v57.9H22.9z"/><path fill="#785328" d="M44.4 1549.8h1618.1V2240H44.4z"/><path fill="#C0C0C0" d="M366.1 1066.7h790.5v429.7H366.1z"/><path fill="#A6A8AB" d="M826.7 1242c-1.8-1.8-3.5-3.1-5.6-3.7-10.7-14.1-29.7-16.1-46.4-14.1v-.1c-3.7-6.7-2.7-16.6-3.7-24.1-.6-5-5.4-2.7-8.8-1-.3.2-.7.5-.6.9 1.9 8.6 2.2 17.2 1.1 25.9-6.4 1-12.8 2.5-18.1 5.7-6.1 3.6-14.7 10-16.7 17.4-.2.1-.5.2-.7.4-.6.3-1.1.8-1.4 1.3-9.8 13.2-14.5 27.6-10.7 44.1 7.2 31 26.2 52.4 54.2 66.4 13.3 6.7 26.2 5.3 37.5-4.6 10.5-9.2 19-19.4 25.1-30.8-.6-.1-1.1-.3-1.7-.6-2.7-1.5-3.9-4.6-3.1-7.4-.1 0-.1 0-.2-.1-2.8-1.6-4.3-4.6-4-7.6l-.6-.3c-4.8-2.6-6.5-8.7-3.9-13.4.2-.4.4-.7.7-1h-.1c-5.4-3-7.3-9.7-4.3-15.1.6-1 1.3-1.9 2.1-2.7-1.3-2.9-1.4-6.2.2-9.1 1.5-2.7 4.2-4.4 7.2-4.9.3-.8.7-1.5 1.1-2.2 2.2-4 5.5-7.1 9.3-9-2.1-3.7-4.7-7.1-7.9-10.3zm-61.5-29.1c-.1-2.5-.3-4.9-.7-7.4-.4-2.5-1.6-4.8 1.2-5.9 1.2 0 2.3-.1 3.5-.1.1.6.1 1.1.2 1.7.3 1 .2 2.3.3 3.4.2 2.5.5 5 .7 7.6.4 4.2.5 8.6 2.5 12.4-2.7.4-5.5.7-8.3 1.1.5-4.3.8-8.6.6-12.8zm-35.6 79.8c-1.1.1-2.5-1.8-4.3-3.3 1.8-2 3-3.4 4.3-4.7 1.1 1.6 2.9 3 3.2 4.7.1 1-2 3.2-3.2 3.3zm16.1 25.3c-.6.8-3.9.8-4.5 0-2.2-2.9-.6-5.2 2.2-7.4 2.6 2.3 4.7 4.5 2.3 7.4zm3.9-39.4c.2-1.8 1.8-3.3 2.8-5 1.3 1.2 2.7 2.5 4.7 4.3-1.7 1.7-2.8 3.7-4 3.7-1.3-.1-3.6-2.1-3.5-3zm12.2 21.7c3.7 2.8 4.8 5.7 2.7 7.3-1.1.8-3.5.7-4.6 0-2-1.5-1-4.7 1.9-7.3zm7.2 37.3c-1.3-.1-3.4-2.1-3.3-3.1.2-1.7 1.7-3.3 2.7-5 1.4 1.3 2.8 2.7 4.8 4.7-1.8 1.6-3.1 3.5-4.2 3.4zm19.8 13.6c-1.1.3-2.6-1.4-4.9-2.8 1.9-2.3 3.1-3.7 4.3-5.2 1.2 1.4 3 2.7 3.3 4.3.2 1.1-1.5 3.4-2.7 3.7zm-8.7-62.2c.1-1.7 1.6-3.4 2.6-5.1 1.4 1.2 2.7 2.4 4.8 4.1-1.7 1.7-2.7 3.8-3.9 3.8-1.2.1-3.5-1.9-3.5-2.8zm8.4 28.2c-1.1.2-2.6-1.6-4.5-3 1.7-2.1 2.8-3.6 3.9-5 1.3 1.5 3.1 2.8 3.6 4.5.2.9-1.7 3.3-3 3.5zm21.7 16.5c-1.1.3-2.7-1.5-4.9-2.8 1.8-2.2 3-3.7 4.2-5.2 1.2 1.4 3 2.7 3.4 4.3.2 1.1-1.5 3.4-2.7 3.7zm-8-40.8c.1-1.8 1.6-3.4 2.4-5.2 1.3 1.4 3.2 2.7 3.8 4.4.4 1.1-1.1 2.8-2.3 5.4-2-2.2-4-3.4-3.9-4.6zm11.6-22.1c-1.2-1.2-3.2-2.3-3.5-3.7-.3-1.5 1.1-3.3 1.8-4.9.5 0 1-.1 1.5-.1 1.1 1.7 2.6 3.4 3 5.3.2.9-1.8 2.3-2.8 3.4zm2.7-32.5c-2.8.6-5.7.3-8.6.3-2.9 0-5.9-.1-9.7-.1 6.9 7.2 9.1 15.2 9.3 24.3-12.1-1.8-19.7-9.6-27.2-17.9.6 5.3 1.3 10.2 1.5 15 .2 4.9-.1 9.8-2.7 14.4-10.7-5.9-14.2-15.6-15-27.7-8.7 10.3-18.1 17-30.6 19.5-.9-11.4 4.9-18.9 11.7-26-5 2.5-10 5-15 7.6 1.5-3.4 4.3-5.9 7.2-8.4 3.3-2.9 6.7-5.8 10.7-7.6 8-3.7 18.1-4.7 26.8-5.7 15.4-1.9 33.1-.3 43.7 12-.7.1-1.4.1-2.1.3z"/><path fill="#E85A29" d="M406.9 1144.8c-.5-1.5-.5-1.5 1-2 26.8-9.2 53.5-18.4 80.3-27.7 1.5-.5 1.5-.5 2 1-.3.2 0 .5 0 .7.7 3 1.5 5.9 2.2 8.9 2 8.1 4 16.3 6 24.4 2 8.1 4 16.3 6.1 24.4 2.2 8.9 4.4 17.8 6.6 26.8.1.6 0 .9-.5 1.2-9.9 6.8-19.8 13.5-29.6 20.3-.4.3-.8.4-1.2.4-11.9.7-23.8 1.5-35.8 2.2-.6 0-.8-.1-1.1-.6-1.5-3.5-3.1-7-4.7-10.5-3.1-7-6.3-14-9.4-21-3.4-7.6-6.8-15.3-10.3-23-3.2-7.2-6.4-14.4-9.7-21.6-.5-1.3-1-2.7-1.9-3.9zm63.6 49.4c-.1 0-.2.1-.4.1-3.9.3-7.7.5-11.6.8-.5 0-.7-.1-.9-.6-1-2.2-2-4.5-3-6.7-.3-.6-.5-.7-1.1-.5-2.9 1-5.8 2-8.6 3-1.1.4-1.1.4-.6 1.5 2 4.5 4.1 9.1 6.1 13.6.4.8.7 1.1 1.7 1.1 7.4-.5 14.7-.9 22.1-1.4.3.3.4.7.6 1.1 1 2.9 2 5.8 3 8.6.2.7.5 1 1.2.4 1.1-.8 2.3-1.6 3.4-2.4 6.7-4.6 13.3-9.1 20-13.7.5-.4.6-.8.5-1.4-.5-1.8-1-3.6-1.4-5.4-.8-3.2-1.6-6.5-2.4-9.7-.6-2.4-1.2-4.9-1.8-7.3l-1.8-7.5c-.4-1.8-.9-3.5-1.3-5.3-.6-2.4-1.1-4.8-1.7-7.2-.6-2.4-1.2-4.9-1.9-7.3l-2.4-9.9c-.5-1.9-.9-3.8-1.4-5.7l-1.8-7.2c-.2-.8-.6-1-1.4-.7-10.6 3.7-21.2 7.3-31.9 11-.8.3-.9.6-.7 1.3 1.1 3.1 2.2 6.2 3.2 9.3-.4.1-.7.3-1.1.4-8 2.8-16.1 5.6-24.1 8.3-.9.3-.9.6-.5 1.3.8 1.6 1.5 3.4 2.3 5 1.9 4.3 3.9 8.7 5.8 13l5.1 11.4c.4.2.8 0 1.2-.2 7-2.4 14-4.8 21.1-7.3.9-.3 1.3-.1 1.6.8 1.4 5.3 3.2 10.3 4.9 15.4z"/><path fill="#F2722F" d="M454 1146.2c-1.1-3.1-2.1-6.2-3.2-9.3-.3-.8-.1-1.1.7-1.3 10.6-3.6 21.2-7.3 31.9-11 .8-.3 1.2-.1 1.4.7l1.8 7.2c.5 1.9.9 3.8 1.4 5.7l2.4 9.9c.6 2.4 1.2 4.9 1.9 7.3.6 2.4 1.1 4.8 1.7 7.2.4 1.8.9 3.5 1.3 5.3l1.8 7.5c.6 2.4 1.2 4.9 1.8 7.3.8 3.2 1.6 6.5 2.4 9.7.5 1.8.9 3.6 1.4 5.4.2.6.1 1-.5 1.4-6.7 4.6-13.3 9.1-20 13.7-1.1.8-2.3 1.5-3.4 2.4-.7.6-.9.3-1.2-.4-1-2.9-2-5.8-3-8.6-.1-.4-.2-.8-.6-1.1.1 0 .1-.1.2-.1s.1 0 .2-.1c6.2-4.3 12.5-8.6 18.7-12.8.3-.2.4-.5.3-.8-.3-1.3-.6-2.6-1-4-1.1-4.6-2.3-9.1-3.4-13.7s-2.3-9.2-3.4-13.8c-.2-.8-.5-1-1.3-.7-7.4 2.6-14.8 5.1-22.3 7.7-.3.1-.6.3-.9.4v-.1l-3.6-10.5v-.1l24.6-8.4c.5-.2.6-.4.5-.9-.8-3.1-1.6-6.1-2.3-9.2-.2-.8-.4-.9-1.1-.6-4.3 1.5-8.7 3-13.1 4.5-4 1.5-8.1 2.9-12.1 4.2z"/><path fill="#EEECEB" d="M441.5 1185.7l-5.1-11.4c-1.9-4.3-3.9-8.7-5.8-13-.8-1.7-1.5-3.4-2.3-5-.4-.8-.3-1 .5-1.3 8-2.7 16.1-5.5 24.1-8.3.4-.1.7-.3 1.1-.4v.1c1.2 3.5 2.4 6.9 3.6 10.4v.1c-4.7 1.6-9.5 3.2-14.2 4.8-.4.1-.5.3-.3.7 1.4 3.1 2.7 6.1 4.1 9.2.2.3.3.5.8.4 4.4-1.5 8.8-3.1 13.2-4.6v.1c1.2 3.4 2.4 6.9 3.6 10.3-.3.1-.7.3-1 .4-7.1 2.4-14.1 4.9-21.2 7.3-.3 0-.7.1-1.1.2zm32.8 19.4c-.1 0-.1.1-.2.1-7.4.5-14.7.9-22.1 1.4-1 .1-1.4-.3-1.7-1.1-2-4.6-4.1-9.1-6.1-13.6-.5-1.1-.5-1.1.6-1.5 2.9-1 5.8-2 8.6-3 .6-.2.8-.1 1.1.5 1 2.3 2 4.5 3 6.7.2.5.4.6.9.6 3.9-.3 7.7-.5 11.6-.8.1 0 .2-.1.4-.1v.1c1.4 3.5 2.6 7.1 3.9 10.7z"/><path fill="#F27231" d="M441.5 1185.7c.4-.1.8-.2 1.2-.4 7.1-2.4 14.1-4.9 21.2-7.3.3-.1.7-.3 1-.4 3.9-1.3 7.8-2.6 11.7-4 .9-.3 1.1-.2 1.4.7.9 4 1.9 8 2.9 12 .2.6 0 .9-.5 1.3-3.3 2.2-6.5 4.4-9.8 6.6v-.1c-1.7-5-3.5-10.1-5.2-15.1-.3-.9-.7-1.1-1.6-.8-7 2.5-14 4.9-21.1 7.3-.4.2-.8.4-1.2.2z"/><path fill="#FFF" d="M470.5 1194.3c3.3-2.2 6.5-4.5 9.8-6.6.5-.3.6-.6.5-1.3-1-4-2-8-2.9-12-.2-.9-.5-1-1.4-.7-3.9 1.4-7.8 2.7-11.7 4-1.2-3.4-2.4-6.9-3.6-10.3.3-.1.6-.3.9-.4 7.4-2.6 14.9-5.1 22.3-7.7.8-.3 1.1-.1 1.3.7 1.1 4.6 2.2 9.2 3.4 13.8 1.1 4.6 2.3 9.1 3.4 13.7.3 1.3.6 2.6 1 4 .1.4.1.6-.3.8-6.2 4.3-12.5 8.6-18.7 12.8-.1 0-.1 0-.2.1-1.3-3.7-2.5-7.3-3.8-10.9zm-12.9-37.6c-1.2-3.5-2.4-6.9-3.6-10.4 4-1.4 8.1-2.8 12.1-4.2 4.4-1.5 8.7-3 13.1-4.5.7-.3.9-.1 1.1.6.7 3.1 1.5 6.2 2.3 9.2.1.5 0 .7-.5.9-8.2 2.8-16.3 5.6-24.5 8.4z"/><path fill="#E85A29" d="M461.2 1167.2c-4.4 1.5-8.8 3.1-13.2 4.6-.4.1-.6 0-.8-.4-1.4-3.1-2.7-6.2-4.1-9.2-.2-.4-.1-.6.3-.7 4.7-1.6 9.5-3.2 14.2-4.8l3.6 10.5z"/><path fill="#1A7EBD" d="M1020 1308.1c.4-1 .8-2.1 1.2-3.1.8.3 1.6.6 2.5.9 32.8 12.4 65.7 24.9 98.5 37.3 2.9 1.1 2.9 1.1 1.5 3.9-7.6 15.7-15.3 31.4-22.9 47.1-8.2 16.9-16.4 33.9-24.5 50.8-.5 1.1-1.2 1.5-2.4 1.4-14.8-1.4-29.5-2.7-44.3-4.1-.6-.1-1.2-.2-1.7-.6-12.1-8.9-24.2-17.8-36.3-26.6-.7-.5-.9-.9-.6-1.7 2.2-7.8 4.3-15.6 6.5-23.3 3.2-11.5 6.5-22.9 9.7-34.4 3.7-13.2 7.4-26.4 11.1-39.7.5-2.6 1.7-5.1 1.7-7.9zm35.4 63.3c-4.7-1.7-9.4-3.5-14.1-5.3-1.1-.4-1.5-.3-1.8.9-.9 3.5-1.9 6.9-3 10.4-.5 1.5 0 2 1.4 2.5 4.2 1.5 8.3 3.2 12.5 4.8-2.6 6.8-5.2 13.7-7.7 20.5-4.3-2.7-8.2-5.9-12.4-8.8-.6-.4-.6-1-.4-1.6.8-2.7 1.5-5.5 2.3-8.2.3-1 .2-1.5-.9-1.9-3.5-1.3-7-2.6-10.4-4-1.1-.4-1.4-.2-1.7.9-1.6 6.1-3.4 12.2-5.2 18.2-.3 1.2-.1 1.8.9 2.5 7.6 5.5 15.1 11.1 22.6 16.6-1.6 4.1-3 8.3-4.7 12.4-.7 1.8-.1 2 1.4 2.2 11.2 1 22.5 2 33.7 3.1 1.7.2 2.5-.5 3.2-2 2-4.5 4.1-8.9 6.3-13.3 2.9-5.9 5.7-11.8 8.6-17.7 2-4.1 4-8.3 6-12.4 2.8-5.8 5.7-11.7 8.5-17.5 1.5-3.1 3-6.2 4.5-9.4 2.2-4.6 4.4-9.1 6.6-13.7.6-1.2.3-1.7-.9-2.2-13.1-4.9-26.2-9.9-39.2-14.8-1.1-.4-1.7-.2-2.1.9-1.3 3.6-2.7 7.1-4 10.6-.7-.2-1.4-.4-2.1-.7-9.6-3.6-19.2-7.2-28.7-10.9-1.3-.5-1.9-.4-2.2 1-1 3.9-2.1 7.8-3.1 11.7.3.7 1 .7 1.5.9 9.1 3.5 18.2 6.9 27.3 10.3.6.2 1.1.6 1.8.4l.6.3c-1.8 4.6-3.4 8.9-5.1 13.3z"/><path fill="#3CB0DF" d="M1065.4 1345.2c1.3-3.5 2.7-7.1 4-10.6.4-1.1.9-1.4 2.1-.9 13.1 5 26.1 9.9 39.2 14.8 1.2.5 1.5 1 .9 2.2-2.2 4.6-4.4 9.1-6.6 13.7-1.5 3.1-3 6.2-4.5 9.4-2.8 5.8-5.7 11.7-8.5 17.5-2 4.1-4 8.3-6 12.4-2.9 5.9-5.8 11.8-8.6 17.7-2.1 4.4-4.3 8.8-6.3 13.3-.7 1.5-1.5 2.2-3.2 2-11.2-1.1-22.4-2.1-33.7-3.1-1.6-.1-2.2-.4-1.4-2.2 1.7-4.1 3.2-8.2 4.7-12.4l.1-.2c.2.1.5.2.7.2 8.8.8 17.5 1.5 26.3 2.5 2 .2 2.9-.5 3.6-2.2 1.4-3.2 2.9-6.3 4.4-9.4 3.4-7.1 6.9-14.2 10.3-21.2 2.8-5.7 5.6-11.4 8.3-17.1 2.2-4.5 4.3-9.1 6.4-13.6.1-.2 0-.3-.2-.3-5.7-2.2-11.4-4.4-17.2-6.6-5-1.9-10-3.7-15-5.6.1-.2.1-.3.2-.3z"/><path fill="#EBECED" d="M1037.5 1418.9c-7.5-5.5-15-11.1-22.6-16.6-.9-.7-1.2-1.3-.9-2.5 1.8-6.1 3.5-12.1 5.2-18.2.3-1.2.7-1.4 1.7-.9 3.5 1.4 6.9 2.7 10.4 4 1.1.4 1.2.9.9 1.9-.9 2.7-1.6 5.5-2.3 8.2-.2.6-.3 1.2.4 1.6 4.2 2.9 8.1 6.1 12.4 8.8l-.1.2c-1.7 4.5-3.4 8.9-5.1 13.4v.1zm-8.4-72.6c1.1-3.9 2.2-7.8 3.1-11.7.4-1.4 1-1.5 2.2-1 9.6 3.7 19.2 7.3 28.7 10.9.7.3 1.4.5 2.1.7 0 .1-.1.1-.1.2-1.6 4.2-3.2 8.5-4.8 12.7 0 .1-.1.1-.1.2l-.6-.3c-.7-.3-1.4-.6-2-.9-9.4-3.6-18.9-7.2-28.5-10.8z"/><path fill="#3CB0DF" d="M1042.7 1405.1c2.6-6.8 5.2-13.7 7.7-20.5 0-.1 0-.1.1-.2.6.3 1.2.6 1.9.8 4.1 1.6 8.1 3.1 12.2 4.6 1.3.5 1.9.8 1.1 2.4-2.2 4.3-4.2 8.7-6.3 13.1-.5 1.1-1.2 1.5-2.5 1.3-4.7-.5-9.5-.9-14.3-1.4l.1-.1zm12.7-33.7c1.7-4.4 3.3-8.7 5-13.1 0-.1.1-.1.1-.2.2.1.4.2.7.3 5.3 2 10.7 4.1 16 6 1.1.4 1.6.8 1 2-1.7 3.4-3.4 6.9-5 10.3-.5 1-1 1-1.9.7-3.5-1.4-7.1-2.7-10.6-4-1.7-.6-3.4-1.6-5.3-1.7-.1-.1 0-.2 0-.3z"/><path fill="#EBECED" d="M1050.4 1384.7c-4.2-1.6-8.3-3.3-12.5-4.8-1.4-.5-1.8-1.1-1.4-2.5 1.1-3.4 2.1-6.9 3-10.4.3-1.2.8-1.3 1.8-.9 4.7 1.8 9.4 3.5 14.1 5.3 0 .1-.1.2-.1.3-1.6 4.3-3.2 8.5-4.8 12.8 0 0-.1.1-.1.2z"/><path fill="#3CB0DF" d="M1029.1 1346.3l28.5 10.8c.7.3 1.4.6 2 .9-.7.2-1.2-.2-1.8-.4-9.1-3.4-18.2-6.9-27.3-10.3-.4-.3-1.1-.3-1.4-1z"/><path fill="#FCFDFF" d="M1050.5 1384.5c1.6-4.3 3.2-8.5 4.8-12.8 1.9.2 3.5 1.1 5.3 1.7 3.6 1.3 7.1 2.6 10.6 4 .9.3 1.4.3 1.9-.7 1.6-3.5 3.3-6.9 5-10.3.6-1.2.1-1.6-1-2-5.3-2-10.7-4-16-6-.2-.1-.4-.2-.7-.3 1.6-4.2 3.2-8.5 4.8-12.7 5 1.9 10 3.7 15 5.6 5.7 2.2 11.4 4.4 17.2 6.6.1.1.1.2.2.3-2.1 4.5-4.3 9.1-6.4 13.6-2.7 5.7-5.5 11.4-8.3 17.1-3.4 7.1-6.9 14.2-10.3 21.2-1.5 3.1-3.1 6.2-4.4 9.4-.7 1.7-1.5 2.4-3.6 2.2-8.7-.9-17.5-1.7-26.3-2.5-.2 0-.5-.1-.7-.2 1.7-4.5 3.4-8.9 5.1-13.4 4.8.5 9.5.9 14.3 1.4 1.3.1 1.9-.2 2.5-1.3 2-4.4 4.1-8.8 6.3-13.1.8-1.6.3-1.9-1.1-2.4-4.1-1.5-8.1-3-12.2-4.6-.8-.2-1.4-.6-2-.8z"/><path fill="#EBECED" d="M1097.6 1357.8c-.1-.1-.1-.2-.2-.3.2 0 .3.1.2.3z"/><path fill="#FFF" d="M318.97 1809.17l990.38-238.48 89.262 370.7-990.38 238.478z"/><path fill="#336" d="M107.615 1264.697l109.4.21-.03 14.9-109.4-.21z"/><path fill="#2D2D59" d="M101.915 1272.886l120.9.233-.03 14.9-120.9-.236z"/><path fill="#336" d="M101.9 1286.786l120.6.233-.4 208.1-120.6-.236z"/><path fill="#336" d="M96.815 1488.577l130.2.25-.03 14.9-130.2-.25zm.4-206.7l130.2.25-.03 14.9-130.2-.25z"/><path fill="#D0D0D1" d="M116.742 1297.765l38.5.075-.084 43.6-38.5-.075zm52.7.1l38.5.075-.084 43.6-38.5-.075z"/><path fill="#2D2D59" d="M116.542 1346.565l38.5.075-.084 43.6-38.5-.075zm52.7.1l38.5.075-.084 43.6-38.5-.075zm-52.8 48.8l38.5.075-.084 43.6-38.5-.074zm52.7.1l38.5.075-.084 43.6-38.5-.075zm-52.8 48.8l38.5.075-.084 43.6-38.5-.074zm52.7.1l38.5.075-.084 43.6-38.5-.074z"/><path fill="#DFD7B5" d="M169.233 1263.66l-14.6-.027.02-10.9 14.6.028z"/><path fill="#336" d="M154.6 1253.2h.8v9.9h-.8zm13.8 0h.8v9.9h-.8z"/><path fill="#336" d="M153.704 1262.687l16.3.03-.007 3.6-16.3-.03zm16.396-9.387h-16.3v-3.6c.9-.6 3.6-2.2 7.7-2.3 4.6-.1 7.8 1.8 8.6 2.4v3.5zm-41.3 44h1.1v44.5h-1.1zm13.1.1h1.1v44.5h-1.1zm39.7 0h1.1v44.5h-1.1zm13 .1h1.1v44.5h-1.1z"/><path fill="#336" d="M114.2 1319.1h96.9v1.1h-96.9z"/><path fill="#2D2D59" d="M163.385 1295.26l-.376 195-3.8-.008.373-195z"/><path fill="#7A7B7B" d="M166.9 1375.2h-1.5v-12.9h1.5v12.9zm-13.3 0h-1.5v-12.9h1.5v12.9z"/><circle fill="#7A7B7B" cx="166.5" cy="1393.1" r="1.5"/><path fill="#4C4C4D" d="M166.7 1392.2h-.2v2h.2l.1-2"/><path fill="#E1E1E1" d="M118.435 1350.07l32.3.064-.07 36.6-32.3-.063z"/><path d="M120.4 1352.5v.8s.1.1.2.1h.1v.1h-.9v-.1h.1c.1 0 .2 0 .2-.1v-1.7s-.1-.1-.2-.1h-.1v-.1h.8c.2 0 .3 0 .4.1.1 0 .2.1.3.2.1.1.1.2.1.3 0 .2-.1.3-.2.4-.1.1-.3.2-.5.2h-.2s-.1 0-.1-.1zm0 0h.2c.1 0 .2 0 .3-.1.1-.1.1-.2.1-.3 0-.1 0-.2-.1-.2 0-.1-.1-.1-.2-.2-.1 0-.1-.1-.2-.1h-.2l.1.9zm2.2-1.1c.3 0 .5.1.7.3.2.2.3.5.3.8 0 .3-.1.6-.3.8-.2.2-.4.3-.7.3-.3 0-.5-.1-.7-.3-.2-.2-.3-.5-.3-.8 0-.3.1-.6.3-.8.2-.2.4-.3.7-.3zm0 .1c-.2 0-.3.1-.4.2-.1.2-.2.4-.2.8 0 .3.1.6.2.8.1.1.3.2.4.2.2 0 .4-.1.5-.2.1-.2.2-.4.2-.7 0-.4-.1-.6-.2-.8-.2-.2-.3-.3-.5-.3zm2.9 1.5l-.1.6h-1.6v-.1h.1c.1 0 .1 0 .2-.1v-1.7s-.1-.1-.2-.1h-.1v-.1h.9v.1h-.2s-.1 0-.1.1v1.7h.8c.1 0 .1-.1.2-.1 0-.1.1-.2.1-.3zm1.1.5l-.9.1v-.1h.1c.1 0 .1 0 .2-.1v-1.7l-.1-.1h-.2v-.1h.9v.1h-.1c-.1 0-.1 0-.2.1v1.7l.1.1h.2zm1.9-2.1v.7c-.1-.2-.2-.4-.3-.5s-.3-.1-.4-.1c-.1 0-.3 0-.4.1l-.3.3c-.1.2-.1.3-.1.6 0 .2 0 .3.1.5.1.1.1.2.3.3.1.1.3.1.4.1.1 0 .3 0 .4-.1l.3-.3c-.1.2-.2.3-.4.4-.1.1-.3.1-.5.1-.3 0-.6-.1-.8-.4-.1-.2-.2-.4-.2-.7 0-.2 0-.4.1-.6.1-.2.2-.3.4-.4.2-.1.3-.1.5-.1.1 0 .3 0 .4.1h.2c.3.1.3.1.3 0zm.9.2v.8h.5c.1 0 .2 0 .2-.1.1 0 .1-.1.1-.2h.1v.7h-.1v-.2s0-.1-.1-.1h-.7v.9h.8c.1 0 .1 0 .2-.1s.1-.2.2-.3h.1l-.2.5h-1.6v-.1h.2s.1 0 .1-.1v-1.7s-.1-.1-.2-.1h-.1v-.1h1.6v.5h-.1c0-.1 0-.2-.1-.2l-.1-.1h-.8zm3.8-.1v.5h-.1v-.2c0-.1-.1-.1-.1-.1h-.5v1.8s.1.1.2.1h.1v.1h-.9v-.1h.1c.1 0 .1 0 .2-.1v-1.8h-.4c-.1 0-.1.1-.1.1 0 .1-.1.1-.1.2h-.1v-.5h1.7zm.7.1v.8h.5c.1 0 .2 0 .2-.1.1 0 .1-.1.1-.2h.1v.7h-.1v-.2s0-.1-.1-.1h-.7v.9h.8c.1 0 .1 0 .2-.1s.1-.2.2-.3h.1l-.2.5h-1.6v-.1h.2s.1 0 .1-.1v-1.7s-.1-.1-.2-.1h-.1v-.1h1.6v.5h-.1c0-.1 0-.2-.1-.2l-.1-.1h-.8zm3.1 1.4l-.1.6h-1.6v-.1h.1c.1 0 .1 0 .2-.1v-1.7s-.1-.1-.2-.1h-.1v-.1h.9v.1h-.2s-.1 0-.1.1v1.7h.8c.1 0 .1-.1.2-.1 0-.1 0-.2.1-.3zm.8-1.4v.8h.5c.1 0 .2 0 .2-.1.1 0 .1-.1.1-.2h.1v.7h-.1v-.2s0-.1-.1-.1h-.7v.9h.8c.1 0 .1 0 .2-.1s.1-.2.2-.3h.1l-.2.5h-1.6v-.1h.2s.1 0 .1-.1v-1.7s-.1-.1-.2-.1h-.1v-.1h1.6v.5h-.1c0-.1 0-.2-.1-.2l-.1-.1h-.8z"/><path d="M139.6 1352.6v.8s.1.1.2.1h.1v.1h-.9v-.1h.1c.1 0 .2 0 .2-.1v-1.7s-.1-.1-.2-.1h-.1v-.1h.8c.2 0 .3 0 .4.1.1 0 .2.1.3.2.1.1.1.2.1.3 0 .2-.1.3-.2.4-.1.1-.3.2-.5.2h-.2c.1-.1 0-.1-.1-.1zm0-.1h.2c.1 0 .2 0 .3-.1.1-.1.1-.2.1-.3 0-.1 0-.2-.1-.2 0-.1-.1-.1-.2-.2-.1 0-.1-.1-.2-.1h-.2l.1.9zm1.8-.1h1v-.8l-.1-.1h-.2v-.1h.9v.1h-.2s-.1 0-.1.1v1.7l.1.1h.2v.1h-.9v-.1h.1c.1 0 .1 0 .2-.1v-.8h-1v.8l.1.1h.2v.1h-.9v-.1h.1c.1 0 .1 0 .2-.1v-1.7l-.1-.1h-.2v-.1h.9v.1h-.2s-.1 0-.1.1v.8zm2.7-1c.3 0 .5.1.7.3.2.2.3.5.3.8 0 .3-.1.6-.3.8-.2.2-.4.3-.7.3-.3 0-.5-.1-.7-.3-.2-.2-.3-.5-.3-.8 0-.3.1-.6.3-.8.2-.2.5-.3.7-.3zm0 .2c-.2 0-.3.1-.4.2-.1.2-.2.4-.2.8 0 .3.1.6.2.8.1.1.3.2.4.2.2 0 .4-.1.5-.2.1-.2.2-.4.2-.7 0-.4-.1-.6-.2-.8-.1-.3-.3-.3-.5-.3zm1.1-.1h.6l1.3 1.6v-1.4s-.1-.1-.2-.1h-.1v-.1h.7v.1h-.1c-.1 0-.1 0-.2.1v1.9h-.1l-1.4-1.7v1.5s.1.1.2.1h.1v.1h-.7v-.1h.1c.1 0 .2 0 .2-.1v-1.6l-.1-.1s-.1 0-.1-.1c-.1 0-.1-.1-.2-.1zm3 .1v.8h.5c.1 0 .2 0 .2-.1.1 0 .1-.1.1-.2h.1v.7h-.1v-.2s0-.1-.1-.1h-.7v.9h.8c.1 0 .1 0 .2-.1s.1-.2.2-.3h.1l-.2.5h-1.6v-.1h.2s.1 0 .1-.1v-1.7s-.1-.1-.2-.1h-.1v-.1h1.6v.5h-.1c0-.1 0-.2-.1-.2l-.1-.1h-.8zm-20.6 4.7v1.8h.8c.2 0 .3 0 .4-.1.1-.1.1-.2.2-.5h.1v1.5h-.1c0-.2 0-.3-.1-.4 0-.1-.1-.1-.2-.2s-.2-.1-.3-.1h-.8v1.9c0 .1.1.1.1.1.1.1.2.1.3.1h.2v.1h-1.9v-.1h.2c.2 0 .3-.1.4-.2.1-.1.1-.2.1-.5v-3.4c0-.1-.1-.1-.1-.1-.1-.1-.2-.1-.3-.1h-.2v-.1h3.4v1h-.1c-.1-.2-.1-.4-.2-.5-.1-.1-.2-.2-.3-.2s-.3-.1-.5-.1l-1.1.1zm7 4.3h-1.2l-1.5-2.1h-.5v1.3c0 .3 0 .5.1.5.1.1.2.1.4.1h.2v.1h-1.9v-.1h.2c.2 0 .3-.1.4-.2 0-.1.1-.2.1-.5v-2.9c0-.3 0-.5-.1-.5-.1-.1-.2-.1-.4-.1h-.2v-.1h1.6c.5 0 .8 0 1.1.1.2.1.4.2.6.4s.2.4.2.7c0 .3-.1.5-.3.7-.2.2-.5.3-.8.4l.9 1.3c.2.3.4.5.5.6.2.1.4.2.6.2v.1zm-3.2-2.4h.2c.4 0 .8-.1 1-.3s.3-.4.3-.7c0-.3-.1-.5-.3-.7-.2-.2-.4-.3-.7-.3-.1 0-.3 0-.5.1v1.9zm4.6-1.9v1.8h1c.3 0 .4 0 .5-.1.1-.1.2-.3.2-.5h.1v1.6h-.1c0-.2-.1-.4-.1-.4 0-.1-.1-.1-.2-.2-.1 0-.2-.1-.4-.1h-1v1.9s0 .1.1.1h1.1c.3 0 .4 0 .6-.1s.2-.1.3-.2c.1-.1.3-.3.4-.6h.1l-.4 1.1h-3.5v-.1h.2c.1 0 .2 0 .3-.1.1 0 .1-.1.1-.2v-3.3c0-.3 0-.5-.1-.5-.1-.1-.2-.1-.4-.1h-.2v-.1h3.5v1h-.1c0-.2-.1-.4-.2-.5-.1-.1-.1-.2-.3-.2-.1 0-.2-.1-.5-.1l-1-.1zm4.1 0v1.8h1c.3 0 .4 0 .5-.1.1-.1.2-.3.2-.5h.1v1.6h-.1c0-.2-.1-.4-.1-.4 0-.1-.1-.1-.2-.2-.1 0-.2-.1-.4-.1h-1v1.9s0 .1.1.1h1.1c.3 0 .4 0 .6-.1.1 0 .2-.1.3-.2.1-.1.3-.3.4-.6h.1l-.4 1.1h-3.5v-.1h.2c.1 0 .2 0 .3-.1.1 0 .1-.1.1-.2v-3.3c0-.3 0-.5-.1-.5-.1-.1-.2-.1-.4-.1h-.2v-.1h3.5v1h-.1c0-.2-.1-.4-.2-.5s-.1-.2-.3-.2c-.1 0-.2-.1-.5-.1l-1-.1zm-14.8 5.2v.9h.4c.1 0 .2 0 .2-.1 0 0 .1-.1.1-.2h.1v.8h-.1v-.2l-.1-.1h-.6v.9s0 .1.1.1h.3v.1h-1v-.1h.1c.1 0 .2 0 .2-.1v-2s0-.1-.1-.1h-.3v-.1h1.7v.5h-.1c0-.1-.1-.2-.1-.2l-.1-.1h-.7zm2.4-.2c.3 0 .5.1.8.3.2.2.3.5.3.8 0 .3-.1.6-.3.9s-.5.3-.8.3c-.3 0-.6-.1-.8-.3-.2-.2-.3-.5-.3-.9s.1-.6.4-.9c.2-.1.4-.2.7-.2zm0 .1c-.2 0-.4.1-.5.2-.2.2-.2.5-.2.8 0 .4.1.7.2.8.1.2.3.2.5.2s.4-.1.5-.2c.1-.2.2-.4.2-.8s-.1-.7-.2-.9c-.1 0-.3-.1-.5-.1zm3.5 2.2h-.6l-.8-1.1h-.2v1s.1.1.2.1h.1v.1h-1v-.1h.1c.1 0 .2 0 .2-.1v-2s-.1-.1-.2-.1h-.1v-.1h.8c.2 0 .4 0 .5.1.1 0 .2.1.3.2.1.1.1.2.1.3 0 .1 0 .3-.1.4-.1.1-.2.2-.4.2l.5.6.3.3s.2.1.3.2zm-1.6-1.1c.1 0 .1 0 0 0 .1 0 .1 0 0 0 .3 0 .5 0 .6-.1.1-.1.2-.2.2-.4 0-.1 0-.3-.1-.3-.1-.1-.2-.1-.3-.1h-.3l-.1.9zm4.1-1.1l.8-.1v.1h-.1c-.1 0-.2 0-.2.1v1.1c0 .2 0 .4-.1.5 0 .1-.1.2-.3.3-.1.1-.3.1-.5.1s-.4 0-.6-.1-.2-.2-.3-.3c0-.1-.1-.3-.1-.6v-.9c0-.1 0-.2-.1-.3 0 0-.1-.1-.2-.1h-.1v-.1h1v.1h-.1c-.1 0-.2 0-.2.1v1.5c0 .1 0 .2.1.3 0 .1.1.1.2.2s.2.1.3.1c.1 0 .3 0 .4-.1.1-.1.2-.1.2-.2s.1-.3.1-.5v-1.2c0 .1-.1 0-.2 0zm2.4-.1v.8h-.1c0-.1-.1-.3-.1-.4s-.1-.2-.2-.2c-.1-.1-.2-.1-.3-.1-.1 0-.2 0-.3.1-.1.1-.1.2-.1.2 0 .1 0 .1.1.2s.2.2.5.3c.2.1.4.2.4.3l.2.2c0 .1.1.2.1.3 0 .2-.1.3-.2.4-.1.1-.3.2-.5.2h-.2s-.1 0-.2-.1c-.1 0-.2-.1-.2-.1h-.1v.1h-.1v-.8h.1c0 .2.1.3.1.4 0 .1.1.1.2.2s.2.1.3.1c.1 0 .2 0 .3-.1.1-.1.1-.2.1-.3v-.2c0-.1-.1-.1-.1-.2l-.4-.2c-.2-.1-.3-.2-.4-.3l-.2-.2c0-.1-.1-.2-.1-.3 0-.2.1-.3.2-.4.1-.1.3-.2.5-.2.1 0 .2 0 .4.1h.2s0 .3.1.2zm1 .2v.9h.5c.1 0 .2 0 .3-.1.1-.1.1-.1.1-.3h.1v.8h-.1v-.2l-.1-.1h-.7v1h.8c.1 0 .1-.1.2-.1.1-.1.1-.2.2-.3h.1l-.2.6h-1.7v-.1h.3s.1 0 .1-.1v-2s-.1-.1-.2-.1h-.1v-.1h1.7v.5h-.1c0-.1 0-.2-.1-.2l-.1-.1h-1zm3.5-.2c.3 0 .5.1.8.3.2.2.3.5.3.8 0 .3-.1.6-.3.9-.2.2-.5.3-.8.3-.3 0-.6-.1-.8-.3-.2-.2-.3-.5-.3-.9s.1-.6.4-.9c.1-.1.4-.2.7-.2zm-.1.2c-.2 0-.4.1-.5.2-.2.2-.2.5-.2.8 0 .4.1.7.2.8.1.2.3.2.5.2s.4-.1.5-.2c.1-.2.2-.4.2-.8s-.1-.7-.2-.9c-.1-.1-.2-.1-.5-.1zm2 0v.9h.4c.1 0 .2 0 .2-.1 0 0 .1-.1.1-.2h.1v.8h-.1v-.2l-.1-.1h-.6v.9s0 .1.1.1h.3v.1h-1v-.1h.1c.1 0 .2 0 .2-.1v-2s0-.1-.1-.1h-.3v-.1h1.7v.5h-.1c0-.1-.1-.2-.1-.2l-.1-.1h-.7zm-16 6.1v1c0 .2 0 .3.1.4.1.1.2.1.3.1h.1v.1h-1.4v-.1h.1c.1 0 .2 0 .3-.1 0-.1.1-.2.1-.4v-2.2c0-.2 0-.3-.1-.4-.1-.1-.2-.1-.3-.1h-.1v-.1h1.2c.3 0 .5 0 .7.1.2.1.3.2.4.3.1.1.2.3.2.5 0 .3-.1.5-.3.7-.2.2-.4.3-.8.3h-.3c0-.1-.1-.1-.2-.1zm0-.2h.4c.2 0 .3-.1.4-.2.1-.1.2-.3.2-.5 0-.1 0-.3-.1-.4-.1-.1-.1-.2-.3-.3s-.2-.1-.4-.1h-.3l.1 1.5zm4.2-1.5l1.2-.1v.1h-.1c-.1 0-.2.1-.3.2 0 .1-.1.2-.1.4v1.4c0 .3 0 .6-.1.8s-.2.3-.4.5-.5.2-.8.2c-.4 0-.6-.1-.8-.2-.2-.1-.3-.3-.4-.5-.1-.1-.1-.4-.1-.8v-1.3c0-.2 0-.3-.1-.4-.1-.1-.1-.1-.3-.1h-.1v-.1h1.5v.1h-.1c-.1 0-.2 0-.3.1 0 .1-.1.2-.1.4v2c0 .2.1.3.1.4s.2.2.3.2c.1.1.3.1.4.1.2 0 .4 0 .6-.1.2-.1.3-.2.4-.4s.1-.4.1-.8v-1.4c0-.2 0-.3-.1-.4-.1-.1-.2-.1-.3-.1l-.1-.2zm3.6 1.5c.2.1.4.1.5.2.2.2.2.3.2.6 0 .2-.1.3-.2.5s-.3.3-.4.3c-.2.1-.5.1-.8.1H132v-.1h.1c.1 0 .2 0 .3-.1 0-.1.1-.2.1-.4v-2.2c0-.2 0-.3-.1-.4-.1-.1-.2-.1-.3-.1h-.1v-.1h1.5c.3 0 .5 0 .7.1l.6.3c.1.2.2.3.2.5s-.1.3-.2.5-.2.3-.5.3zm-1.3-.1h.5c.2 0 .4 0 .5-.1.1-.1.2-.1.3-.2.1-.1.1-.2.1-.4s-.1-.4-.2-.5c-.2-.1-.4-.2-.7-.2-.2 0-.3 0-.4.1l-.1 1.3zm0 1.6c.2 0 .4.1.6.1.3 0 .5-.1.7-.2s.2-.3.2-.5c0-.1 0-.3-.1-.4l-.3-.3s-.4-.1-.6-.1h-.5v1.4zm5.3-.7l-.2.9h-2.6v-.1h.1c.1 0 .2 0 .3-.1 0-.1.1-.2.1-.4v-2.2c0-.2 0-.3-.1-.4-.1-.1-.2-.1-.3-.1h-.1v-.1h1.5v.1h-.4c-.1 0-.1.1-.1.1v2.8l.1.1h.6c.3 0 .4 0 .5-.1.1 0 .2-.1.3-.2.1.1.2-.1.3-.3zm1.8.9l-1.4.1v-.1h.1c.1 0 .2 0 .3-.1 0-.1.1-.2.1-.4v-2.5l-.1-.1c-.1 0-.1-.1-.2-.1h-.1v-.1h1.4v.1h-.1c-.1 0-.2 0-.3.1 0 .1-.1.2-.1.4v2.5l.1.1c.1 0 .1.1.2.1h.1zm3.2-3.4l.1 1.1h-.1c-.1-.3-.2-.6-.4-.7s-.4-.2-.7-.2c-.2 0-.4.1-.6.2-.2.1-.3.3-.4.5-.1.2-.2.6-.2.9 0 .3 0 .6.1.8.1.2.2.4.4.5s.4.2.7.2c.2 0 .4 0 .6-.1s.4-.3.6-.6h.1c-.2.3-.4.5-.6.7s-.5.2-.8.2c-.6 0-1-.2-1.3-.6-.2-.3-.3-.7-.3-1.1 0-.3.1-.6.2-.9.2-.3.4-.5.6-.7.3-.2.6-.2.9-.2.2 0 .5.1.7.2.1 0 .1.1.1.1h.1c0-.1.1-.2.2-.3zm-20.6 6.7l.6-1.5h.2l.6 1.5h-.2l-.2-.5h-.6l-.2.5h-.2zm.4-.6h.5l-.2-.4c0-.1-.1-.2-.1-.3 0 .1 0 .2-.1.3l-.1.4zm1.2.6v-1.5h.8c.1 0 .2.1.2.1.1.1.1.2.2.3 0 .1.1.2.1.4v.3c0 .1-.1.2-.1.2 0 .1-.1.1-.1.1-.1 0-.1.1-.2.1h-.9zm.2-.2h.5c.1 0 .1 0 .1-.1 0 0 .1-.1.1-.2v-.3c0-.2 0-.3-.1-.4l-.2-.2h-.6l.2 1.2zm1.7.2l-.6-1.5h.2l.4 1.1c0 .1.1.2.1.2 0-.1.1-.2.1-.2l.4-1.1h.2l-.6 1.5h-.2zm1.1 0v-1.5h.2v1.5h-.2zm1.6-.5l.2.1c0 .2-.1.3-.2.4-.1.1-.2.1-.4.1s-.3 0-.4-.1c-.1-.1-.2-.2-.2-.3-.1-.1-.1-.3-.1-.4 0-.2 0-.3.1-.4.1-.1.1-.2.3-.3.1-.1.2-.1.4-.1s.3 0 .4.1c.1.1.2.2.2.3h-.2c0-.1-.1-.2-.2-.2s-.2-.1-.3-.1c-.1 0-.2 0-.3.1l-.2.2v.3c0 .1 0 .2.1.3 0 .1.1.2.2.2s.2.1.3.1c.1 0 .2 0 .3-.1-.1 0 0-.1 0-.2zm.4.5v-1.5h1.1v.2h-.9v.5h.8v.2h-.8v.5h.9v.2l-1.1-.1zm2.9-.2l-.2.2c-.1 0-.2.1-.2.1-.2 0-.3-.1-.4-.2-.1-.1-.1-.2-.1-.3 0-.1 0-.2.1-.3.1-.1.2-.1.3-.2-.1-.1-.1-.1-.1-.2v-.1c0-.1 0-.2.1-.2.1-.1.2-.1.3-.1.1 0 .2 0 .3.1.1.1.1.1.1.2s-.1.3-.3.4l.3.3c0-.1.1-.1.1-.2h.2c0 .1-.1.2-.1.3.1.1.1.2.2.2l-.1.1c-.3.1-.4 0-.5-.1zm-.1-.1l-.3-.4c-.1.1-.2.1-.2.2s-.1.1-.1.2 0 .1.1.2c0 .1.1.1.2.1s.1 0 .2-.1c0-.1 0-.2.1-.2zm-.3-.7c.1 0 .1-.1.2-.1v-.2h-.2l-.1.1v.1l.1.1zm1.3 1l.6-1.5h.2l.6 1.5h-.2l-.2-.5h-.6l-.2.5h-.2zm.4-.6h.5l-.2-.4c0-.1-.1-.2-.1-.3 0 .1 0 .2-.1.3l-.1.4zm1.1.1h.2c0 .1 0 .1.1.2 0 0 .1.1.2.1h.4c.1 0 .1-.1.1-.1v-.2l-.1-.1s-.1 0-.3-.1c-.1 0-.2-.1-.3-.1-.1 0-.1-.1-.2-.1 0-.1-.1-.1-.1-.2s0-.1.1-.2c0-.1.1-.1.2-.2.1 0 .2-.1.3-.1.1 0 .2 0 .3.1.1 0 .2.1.2.2s.1.2.1.2h-.2c0-.1 0-.2-.1-.2s-.1-.1-.3-.1c-.1 0-.2 0-.3.1-.1 0-.1.1-.1.2s0 .1.1.1c0 0 .1.1.3.1.2 0 .3.1.3.1.1 0 .2.1.2.2s.1.1.1.2 0 .2-.1.2c0 .1-.1.1-.2.2s-.2.1-.3.1c-.1 0-.3 0-.3-.1-.1 0-.2-.1-.2-.2-.1-.1-.1-.2-.1-.3zm1.4 0h.2c0 .1 0 .1.1.2 0 0 .1.1.2.1h.4l.1-.1v-.2l-.1-.1s-.1 0-.3-.1c-.1 0-.2-.1-.3-.1-.1 0-.1-.1-.2-.1 0-.1-.1-.1-.1-.2s0-.1.1-.2c0-.1.1-.1.2-.2.1 0 .2-.1.3-.1.1 0 .2 0 .3.1.1 0 .2.1.2.2s.1.2.1.2h-.2c0-.1 0-.2-.1-.2s-.1-.1-.3-.1c-.1 0-.2 0-.3.1-.1 0-.1.1-.1.2s0 .1.1.1c0 0 .1.1.3.1.2 0 .3.1.3.1.1 0 .2.1.2.2s.1.1.1.2 0 .2-.1.2c0 .1-.1.1-.2.2s-.2.1-.3.1c-.1 0-.3 0-.3-.1-.1 0-.2-.1-.2-.2-.1-.1-.1-.2-.1-.3zm1.5.5v-1.5h.2v1.5h-.2zm.5-.5h.2c0 .1 0 .1.1.2 0 0 .1.1.2.1h.4c.1 0 .1-.1.1-.1v-.2l-.1-.1s-.1 0-.3-.1c-.1 0-.2-.1-.3-.1-.1 0-.1-.1-.2-.1s-.1-.1-.1-.2 0-.1.1-.2c0-.1.1-.1.2-.2.1 0 .2-.1.3-.1.1 0 .2 0 .3.1.1 0 .2.1.2.2s.1.2.1.2h-.2c0-.1 0-.2-.1-.2s-.1-.1-.3-.1c-.1 0-.2 0-.3.1-.1 0-.1.1-.1.2s0 .1.1.1c0 0 .1.1.3.1.2 0 .3.1.3.1.1 0 .2.1.2.2s.1.1.1.2 0 .2-.1.2c0 .1-.1.1-.2.2s-.2.1-.3.1c-.1 0-.3 0-.3-.1-.1 0-.2-.1-.2-.2-.1-.1-.1-.2-.1-.3zm1.9.5v-1.3h-.5v-.2h1.2v.2h-.5v1.3h-.2zm.6 0l.6-1.5h.2l.6 1.5h-.2l-.2-.5h-.6l-.2.5h-.2zm.4-.6h.5l-.2-.4c0-.1-.1-.2-.1-.3 0 .1 0 .2-.1.3l-.1.4zm1.2.6v-1.5h.2l.8 1.2v-1.2h.2v1.5h-.2l-.8-1.2v1.2h-.2zm2.6-.5l.2.1c0 .2-.1.3-.2.4-.1.1-.2.1-.4.1s-.3 0-.4-.1c-.1-.1-.2-.2-.2-.3-.1-.1-.1-.3-.1-.4 0-.2 0-.3.1-.4.1-.1.1-.2.3-.3.1-.1.2-.1.4-.1s.3 0 .4.1c.1.1.2.2.2.3h-.2c0-.1-.1-.2-.2-.2-.1-.1-.2-.1-.3-.1-.1 0-.2 0-.3.1l-.2.2v.3c0 .1 0 .2.1.3 0 .1.1.2.2.2s.2.1.3.1c.1 0 .2 0 .3-.1-.1 0 0-.1 0-.2zm.4.5v-1.5h1.1v.2h-.9v.5h.8v.2h-.8v.5h.9v.2l-1.1-.1zm-24.4 1.8c0-.3.1-.5.2-.6.1-.1.3-.2.5-.2.1 0 .3 0 .4.1l.3.3c.1.1.1.3.1.4 0 .2 0 .3-.1.4l-.3.3s-.2.1-.4.1c-.1 0-.3 0-.4-.1l-.3-.3v-.4zm.2 0c0 .2 0 .3.1.4.1.1.2.2.4.2s.3-.1.4-.2c.1-.1.1-.3.1-.5 0-.1 0-.2-.1-.3 0-.1-.1-.2-.2-.2-.1-.1-.2-.1-.3-.1-.1 0-.3 0-.4.1.1.2 0 .4 0 .6zm1.5.7v-1.5h.9s.1.1.2.1c0 .1.1.1.1.2s0 .1-.1.2c0 .1-.1.1-.2.1.1 0 .2.1.2.1 0 .1.1.1.1.2v.2c0 .1-.1.1-.1.1s-.1.1-.2.1h-.2l-.7.2zm.2-.8h.5c.1 0 .1 0 .1-.1v-.2l-.1-.1h-.5v.4zm0 .7h.6s.1 0 .1-.1v-.2l-.1-.1h-.6v.4zm1.6.1v-1.3h-.5v-.2h1.2v.2h-.5v1.3h-.2zm.6 0l.6-1.5h.2l.6 1.5h-.2l-.2-.5h-.6l-.2.5h-.2zm.5-.6h.5l-.2-.4c0-.1-.1-.2-.1-.3 0 .1 0 .2-.1.3l-.1.4zm1.1.7v-1.5h.2v1.5h-.2zm.6 0v-1.5h.2l.8 1.2v-1.2h.2v1.5h-.2l-.8-1.2v1.2h-.2zm1.4 0l.6-1.5h.2l.6 1.5h-.2l-.2-.5h-.6l-.2.5h-.2zm.4-.7h.5l-.2-.4c0-.1-.1-.2-.1-.3 0 .1 0 .2-.1.3l-.1.4zm1.1.7v-1.5h.9c.1 0 .1.1.2.1 0 .1.1.1.1.2s0 .1-.1.2c0 .1-.1.1-.2.1.1 0 .2.1.2.1 0 .1.1.1.1.2v.2c0 .1-.1.1-.1.1s-.1.1-.2.1h-.2l-.7.2zm.2-.9h.5c.1 0 .1 0 .1-.1v-.2l-.1-.1h-.5v.4zm0 .7h.6s.1 0 .1-.1v-.2l-.1-.1h-.6v.4zm1.3.2v-1.5h.2v1.3h.7v.2h-.9zm1.2 0v-1.5h1.1v.2h-.9v.5h.8v.2h-.8v.5h.9v.2l-1.1-.1zm2 0v-1.5h.2v1.5h-.2zm.5 0v-1.5h.3l.4 1.1c0 .1.1.2.1.2 0-.1 0-.1.1-.2l.4-1.1h.3v1.5h-.2v-1.3l-.4 1.3h-.2l-.4-1.3v1.3h-.4zm1.8 0v-1.5h.3l.4 1.1c0 .1.1.2.1.2 0-.1 0-.1.1-.2l.4-1.1h.3v1.5h-.2v-1.3l-.4 1.3h-.2l-.4-1.3v1.3h-.4zm1.8 0v-1.5h1.1v.2h-.9v.5h.8v.2h-.8v.5h.9v.2l-1.1-.1zm1.4 0v-1.5h.8c.1 0 .2.1.2.1.1.1.1.2.2.3 0 .1.1.2.1.4v.3c0 .1-.1.2-.1.2 0 .1-.1.1-.1.1-.1 0-.1.1-.2.1h-.9zm.2-.2h.5c.1 0 .1 0 .1-.1 0 0 .1-.1.1-.2v-.3c0-.2 0-.3-.1-.4l-.2-.2h-.6l.2 1.2zm1.4.2v-1.5h.2v1.5h-.2zm.4 0l.6-1.5h.2l.6 1.5h-.2l-.2-.5h-.6l-.2.5h-.2zm.4-.6h.5l-.2-.4c0-.1-.1-.2-.1-.3 0 .1 0 .2-.1.3l-.1.4zm1.4.6v-1.3h-.5v-.2h1.2v.2h-.5v1.3h-.2zm.9 0v-1.5h1.1v.2h-.9v.5h.8v.2h-.8v.5h.9v.2l-1.1-.1zm1.4 0v-1.5h.2v1.3h.7v.2h-.9zm1.5 0v-.6l-.6-.9h.2l.3.5c.1.1.1.2.2.3 0-.1.1-.2.2-.3l.3-.4h.2l-.6.9v.6l-.2-.1zm-22.7 1.8c0-.3.1-.5.2-.6.1-.1.3-.2.5-.2.1 0 .3 0 .4.1l.3.3c.1.1.1.3.1.4 0 .2 0 .3-.1.4l-.3.3c-.1.1-.2.1-.4.1-.1 0-.3 0-.4-.1l-.3-.3v-.4zm.2 0c0 .2 0 .3.1.4.1.1.2.2.4.2s.3-.1.4-.2c.1-.1.1-.3.1-.5 0-.1 0-.2-.1-.3 0-.1-.1-.2-.2-.2-.1-.1-.2-.1-.3-.1-.1 0-.3 0-.4.1.1.2 0 .3 0 .6zm1.5.7v-1.5h1v.2h-.8v.5h.7v.2h-.7v.7l-.2-.1zm1.3 0v-1.5h1v.2h-.8v.5h.7v.2h-.7v.7l-.2-.1zm1.3 0v-1.5h.2v1.5h-.2zm1.7-.5l.2.1c0 .2-.1.3-.2.4s-.2.1-.4.1-.3 0-.4-.1c-.1-.1-.2-.2-.2-.3-.1-.1-.1-.3-.1-.4 0-.2 0-.3.1-.4.1-.1.1-.2.3-.3.1-.1.2-.1.4-.1s.3 0 .4.1c.1.1.2.2.2.3h-.2c0-.1-.1-.2-.2-.2s-.2-.1-.3-.1c-.1 0-.2 0-.3.1l-.2.2v.3c0 .1 0 .2.1.3 0 .1.1.2.2.2s.2.1.3.1c.1 0 .2 0 .3-.1-.1 0 0-.1 0-.2zm.4.5v-1.5h1.1v.2h-.9v.5h.8v.2h-.8v.5h.9v.2l-1.1-.1zm1.5 0v-1.5h1c.1 0 .1.1.2.1 0 .1.1.1.1.2s0 .2-.1.3c-.1.1-.2.1-.3.1.1 0 .1.1.1.1l.2.2.3.4h-.3l-.2-.3c-.1-.1-.1-.2-.1-.2l-.1-.1h-.4v.7h-.4zm.2-.8h.6c.1 0 .1 0 .1-.1v-.1c0-.1 0-.1-.1-.2-.1 0-.1-.1-.2-.1h-.5l.1.5z"/><path d="M134.3 1377h.2c0 .1 0 .1.1.2 0 0 .1.1.2.1h.4c.1 0 .1-.1.1-.1v-.2l-.1-.1s-.1 0-.3-.1c-.1 0-.2-.1-.3-.1-.1 0-.1-.1-.2-.1 0-.1-.1-.1-.1-.2s0-.1.1-.2c0-.1.1-.1.2-.2.1 0 .2-.1.3-.1.1 0 .2 0 .3.1.1 0 .2.1.2.2s.1.2.1.2h-.2c0-.1 0-.2-.1-.2s-.1-.1-.3-.1c-.1 0-.2 0-.3.1-.1 0-.1.1-.1.2s0 .1.1.1c0 0 .1.1.3.1.2 0 .3.1.3.1.1 0 .2.1.2.2s.1.1.1.2 0 .2-.1.2c0 .1-.1.1-.2.2s-.2.1-.3.1c-.1 0-.3 0-.3-.1-.1 0-.2-.1-.2-.2s-.1-.2-.1-.3zm2.9.3l-.2.2c-.1 0-.2.1-.2.1-.2 0-.3-.1-.4-.2-.1-.1-.1-.2-.1-.3 0-.1 0-.2.1-.3.1-.1.2-.1.3-.2-.1-.1-.1-.1-.1-.2v-.1c0-.1 0-.2.1-.2.1-.1.2-.1.3-.1.1 0 .2 0 .3.1.1.1.1.1.1.2s-.1.3-.3.4l.3.3c0-.1.1-.1.1-.2h.2c0 .1-.1.2-.1.3.1.1.1.2.2.2l-.1.1c-.3.1-.4 0-.5-.1zm-.1-.1l-.3-.4c-.1.1-.2.1-.2.2s-.1.1-.1.2 0 .1.1.2c0 .1.1.1.2.1s.1 0 .2-.1.1-.1.1-.2zm-.2-.7c.1 0 .1-.1.2-.1v-.2h-.2l-.1.1v.1c-.1 0 0 0 .1.1zm2.6.5l.2.1c0 .2-.1.3-.2.4-.1.1-.2.1-.4.1s-.3 0-.4-.1c-.1-.1-.2-.2-.2-.3-.1-.1-.1-.3-.1-.4 0-.2 0-.3.1-.4.1-.1.1-.2.3-.3.1-.1.2-.1.4-.1s.3 0 .4.1c.1.1.2.2.2.3h-.2c0-.1-.1-.2-.2-.2s-.2-.1-.3-.1c-.1 0-.2 0-.3.1l-.2.2v.3c0 .1 0 .2.1.3 0 .1.1.2.2.2s.2.1.3.1c.1 0 .2 0 .3-.1-.1 0 0-.1 0-.2zm.3.5l.6-1.5h.2l.6 1.5h-.2l-.2-.5h-.6l-.2.5h-.2zm.4-.6h.5l-.2-.4c0-.1-.1-.2-.1-.3 0 .1 0 .2-.1.3l-.1.4zm1.2.6v-1.5h1c.1 0 .1.1.2.1 0 .1.1.1.1.2s0 .2-.1.3c-.1.1-.2.1-.3.1.1 0 .1.1.1.1l.2.2.3.4h-.3l-.2-.3c-.1-.1-.1-.2-.1-.2l-.1-.1h-.4v.7h-.4zm.2-.8h.6c.1 0 .1 0 .1-.1v-.1c0-.1 0-.1-.1-.2-.1 0-.1-.1-.2-.1h-.5l.1.5z"/><path d="M142.8 1377h.2c0 .1 0 .1.1.2 0 0 .1.1.2.1h.4c.1 0 .1-.1.1-.1v-.2l-.1-.1s-.1 0-.3-.1c-.1 0-.2-.1-.3-.1-.1 0-.1-.1-.2-.1s-.1-.1-.1-.2 0-.1.1-.2c0-.1.1-.1.2-.2.1 0 .2-.1.3-.1.1 0 .2 0 .3.1.1 0 .2.1.2.2s.1.2.1.2h-.2c0-.1 0-.2-.1-.2s-.1-.1-.3-.1c-.1 0-.2 0-.3.1-.1 0-.1.1-.1.2s0 .1.1.1c0 0 .1.1.3.1.2 0 .3.1.3.1.1 0 .2.1.2.2s.1.1.1.2 0 .2-.1.2c0 .1-.1.1-.2.2s-.2.1-.3.1c-.1 0-.3 0-.3-.1-.1 0-.2-.1-.2-.2s-.1-.2-.1-.3zm-20.6 3v-1.5h1c.1 0 .1.1.2.1 0 .1.1.1.1.2s0 .2-.1.3c-.1.1-.2.1-.3.1.1 0 .1.1.1.1l.2.2.3.4h-.3l-.2-.3c-.1-.1-.1-.2-.1-.2l-.1-.1h-.4v.7h-.4zm.2-.8h.6c.1 0 .1 0 .1-.1v-.1c0-.1 0-.1-.1-.2-.1 0-.1-.1-.2-.1h-.5l.1.5zm1.4.8v-1.5h1.1v.2h-.9v.5h.8v.2h-.8v.5h.9v.2l-1.1-.1zm1.3-.4h.2c0 .1 0 .1.1.2 0 0 .1.1.2.1h.4l.1-.1v-.2l-.1-.1s-.1 0-.3-.1c-.1 0-.2-.1-.3-.1-.1 0-.1-.1-.2-.1s-.1-.1-.1-.2 0-.1.1-.2c0-.1.1-.1.2-.2.1 0 .2-.1.3-.1.1 0 .2 0 .3.1.1 0 .2.1.2.2s.1.2.1.2h-.2c0-.1 0-.2-.1-.2s-.1-.1-.3-.1c-.1 0-.2 0-.3.1-.1 0-.1.1-.1.2s0 .1.1.1c0 0 .1.1.3.1s.3.1.3.1c.1 0 .2.1.2.2s.1.1.1.2 0 .2-.1.2c0 .1-.1.1-.2.2s-.2.1-.3.1c-.1 0-.3 0-.3-.1-.1 0-.2-.1-.2-.2s-.1-.2-.1-.3zm1.5.5v-1.5h.8c.1 0 .1 0 .2.1.1 0 .1.1.1.1v.2c0 .1 0 .2-.1.3s-.2.1-.4.1h-.4v.6l-.2.1zm.2-.8h.4c.1 0 .2 0 .3-.1.1 0 .1-.1.1-.2v-.2l-.1-.1h-.6l-.1.6zm1.2 0c0-.3.1-.5.2-.6.1-.1.3-.2.5-.2.1 0 .3 0 .4.1l.3.3c.1.1.1.3.1.4 0 .2 0 .3-.1.4l-.3.3c-.1.1-.2.1-.4.1-.1 0-.3 0-.4-.1l-.3-.3v-.4zm.2 0c0 .2 0 .3.1.4.1.1.2.2.4.2s.3-.1.4-.2c.1-.1.1-.3.1-.5 0-.1 0-.2-.1-.3 0-.1-.1-.2-.2-.2-.1-.1-.2-.1-.3-.1-.1 0-.3 0-.4.1v.6zm1.5.8v-1.5h.2l.8 1.2v-1.2h.2v1.5h-.2l-.8-1.2v1.2h-.2zm1.5 0v-1.5h.8c.1 0 .2.1.2.1.1.1.1.2.2.3 0 .1.1.2.1.4v.3c0 .1-.1.2-.1.2 0 .1-.1.1-.1.1-.1 0-.1.1-.2.1h-.9zm.2-.2h.5c.1 0 .1 0 .1-.1 0 0 .1-.1.1-.2v-.3c0-.2 0-.3-.1-.4l-.2-.2h-.6l.2 1.2zm2.3.2v-1.3h-.5v-.2h1.2v.2h-.5v1.3h-.2zm.8-.8c0-.3.1-.5.2-.6.1-.1.3-.2.5-.2.1 0 .3 0 .4.1l.3.3c.1.1.1.3.1.4 0 .2 0 .3-.1.4l-.3.3s-.2.1-.4.1c-.1 0-.3 0-.4-.1l-.3-.3v-.4zm.2 0c0 .2 0 .3.1.4.1.1.2.2.4.2s.3-.1.4-.2c.1-.1.1-.3.1-.5 0-.1 0-.2-.1-.3 0-.1-.1-.2-.2-.2-.1-.1-.2-.1-.3-.1-.1 0-.3 0-.4.1.1.2 0 .4 0 .6zm1.8.8l.6-1.5h.2l.6 1.5h-.2l-.2-.5h-.6l-.2.5h-.2zm.5-.7h.5l-.2-.4c0-.1-.1-.2-.1-.3 0 .1 0 .2-.1.3l-.1.4zm1.1.7v-1.5h.2v1.3h.7v.2h-.9zm1.2 0v-1.5h.2v1.3h.7v.2h-.9zm2.8-.6l.2.1c0 .2-.1.3-.2.4s-.2.1-.4.1-.3 0-.4-.1c-.1-.1-.2-.2-.2-.3-.1-.1-.1-.3-.1-.4 0-.2 0-.3.1-.4.1-.1.1-.2.3-.3.1-.1.2-.1.4-.1s.3 0 .4.1c.1.1.2.2.2.3h-.2c0-.1-.1-.2-.2-.2s-.2-.1-.3-.1c-.1 0-.2 0-.3.1l-.2.2v.3c0 .1 0 .2.1.3 0 .1.1.2.2.2s.2.1.3.1c.1 0 .2 0 .3-.1-.1.1-.1 0 0-.2zm.2.6l.6-1.5h.2l.6 1.5h-.2l-.2-.5h-.6l-.2.5h-.2zm.5-.6h.5l-.2-.4c0-.1-.1-.2-.1-.3 0 .1 0 .2-.1.3l-.1.4zm1.1.6v-1.5h.2v1.3h.7v.2h-.9zm1.2 0v-1.5h.2v1.3h.7v.2h-.9zm1.1-.5h.2c0 .1 0 .1.1.2 0 0 .1.1.2.1h.4l.1-.1v-.2l-.1-.1s-.1 0-.3-.1c-.1 0-.2-.1-.3-.1-.1 0-.1-.1-.2-.1 0-.1-.1-.1-.1-.2s0-.1.1-.2c0-.1.1-.1.2-.2.1 0 .2-.1.3-.1.1 0 .2 0 .3.1.1 0 .2.1.2.2s.1.2.1.2h-.2c0-.1 0-.2-.1-.2s-.1-.1-.3-.1c-.1 0-.2 0-.3.1-.1 0-.1.1-.1.2s0 .1.1.1c0 0 .1.1.3.1.2 0 .3.1.3.1.1 0 .2.1.2.2s.1.1.1.2 0 .2-.1.2c0 .1-.1.1-.2.2s-.2.1-.3.1c-.1 0-.3 0-.3-.1-.1 0-.2-.1-.2-.2s-.1-.2-.1-.3zm-24.9 5v-2.7h1.4c.1 0 .2.1.3.1.1.1.2.1.2.3.1.1.1.2.1.4s-.1.4-.2.6c-.1.2-.4.2-.8.2h-.7v1.1h-.3zm.3-1.4h.7c.2 0 .4 0 .5-.1.1-.1.1-.2.1-.4 0-.1 0-.2-.1-.3l-.2-.2h-1v1zm3.9-1.3h.4v1.6c0 .3 0 .5-.1.6-.1.2-.2.3-.3.4-.2.1-.4.1-.6.1-.3 0-.5 0-.6-.1-.2-.1-.3-.2-.3-.4-.1-.2-.1-.4-.1-.7v-1.6h.4v1.6c0 .2 0 .4.1.5 0 .1.1.2.2.3.1.1.2.1.4.1.3 0 .4-.1.6-.2.1-.1.2-.3.2-.7l-.3-1.5zm1 2.7v-2.7h.4v2.4h1.3v.3h-1.7zm2.1 0v-2.7h.4v2.4h1.3v.3h-1.7zm3.6 0v-2.4h-.9v-.3h2.1v.3h-.9v2.4h-.3zm1.4-1.3c0-.4.1-.8.4-1 .2-.3.5-.4.9-.4.2 0 .5.1.7.2.2.1.4.3.5.5s.2.5.2.7c0 .3-.1.5-.2.7-.1.2-.3.4-.5.5-.2.1-.4.2-.7.2-.3 0-.5-.1-.7-.2-.2-.1-.3-.3-.5-.5 0-.2-.1-.5-.1-.7zm.4 0c0 .3.1.6.3.8.2.2.4.3.7.3.3 0 .5-.1.7-.3.2-.2.3-.5.3-.8 0-.2 0-.4-.1-.6-.1-.2-.2-.3-.3-.4-.1-.1-.3-.1-.5-.1-.3 0-.5.1-.7.3-.3.1-.4.4-.4.8zm3.6 0c0-.4.1-.8.4-1 .2-.3.5-.4.9-.4.2 0 .5.1.7.2.2.1.4.3.5.5.1.2.2.5.2.7 0 .3-.1.5-.2.7-.1.2-.3.4-.5.5-.2.1-.4.2-.7.2-.3 0-.5-.1-.7-.2-.2-.1-.3-.3-.5-.5-.1-.2-.1-.4-.1-.7zm.3 0c0 .3.1.6.3.8.2.2.4.3.7.3.3 0 .5-.1.7-.3.2-.2.3-.5.3-.8 0-.2 0-.4-.1-.6-.1-.2-.2-.3-.3-.4-.1-.1-.3-.1-.5-.1-.3 0-.5.1-.7.3-.3.1-.3.4-.4.8zm2.7 1.3v-2.7h1.4c.1 0 .2.1.3.1.1.1.2.1.2.3.1.1.1.2.1.4s-.1.4-.2.6c-.1.2-.4.2-.8.2h-.7v1.1h-.3zm.4-1.4h.7c.2 0 .4 0 .5-.1.1-.1.1-.2.1-.4 0-.1 0-.2-.1-.3l-.2-.2h-1v1zm2.1 1.4v-2.7h1.9v.3h-1.6v.8h1.5v.3h-1.5v.9h1.7v.3l-2 .1zm2.5 0v-2.7h.4l1.4 2.1v-2.1h.3v2.7h-.4l-1.4-2.1v2.1h-.3z"/><path fill="#E1E1E1" d="M195.5 1368.5c0 3.5-2.9 6.4-6.4 6.4-3.6 0-6.5-2.9-6.5-6.5s3-6.5 6.5-6.4c3.6.1 6.4 2.9 6.4 6.5zm-1.5-.1c0-2.7-2.2-4.9-4.8-4.9-2.6 0-5 1.9-5 5 0 2.6 2.2 4.9 4.9 4.9 2.5 0 4.9-2 4.9-5zm-2.9-5.9c-.1 0-.2 0-.3-.1h-.1c-.1.2-.2.3-.3.5 0 0 0 .1-.1.1v-.8c-.1 0-.2 0-.3-.1-.1.3-.2.7-.3 1 .1 0 .1 0 .2.1.1-.3.1-.5.2-.8v.7c0 .1 0 .1.1.1h.1c0-.1.1-.1.1-.2.1-.1.2-.3.2-.4-.1.3-.1.5-.2.8.1 0 .2 0 .2.1.3-.3.4-.6.5-1zm-4.6 1c-.2-.1-.4-.3-.6-.4h-.1c-.1 0-.1.1-.2.1.2.3.4.6.5.9.1 0 .1-.1.2-.1-.1-.2-.3-.4-.4-.7.2.1.4.3.7.4h.1c.1 0 .1-.1.2-.1-.2-.3-.4-.6-.5-.9-.1 0-.1.1-.2.1.1.3.2.5.3.7zm8.7 3.8c-.2.1-.5.1-.7.2.2-.2.4-.3.5-.5v-.1c0-.1 0-.2-.1-.2-.3.1-.7.2-1 .2v.2c.2-.1.5-.1.7-.2-.2.2-.4.4-.6.5v.3c.4-.1.7-.2 1-.2.2-.1.2-.2.2-.2zm-3.6-4.5c-.2.3-.3.6-.5.9.2.1.4.2.5.3.1 0 .2 0 .3-.1.1-.1.1-.2 0-.3h.1c.2 0 .3-.2.2-.4l-.1-.1c-.2-.2-.3-.3-.5-.3zm-7.8 2.5c0 .2.2.4.4.5.4.1.7-.1.7-.5 0-.2-.2-.4-.4-.5-.4-.1-.7.1-.7.5zm.9-1.3l-.2.2c.2.3.5.5.7.8l.2-.2-.3-.3.3-.3.3.3.2-.2c-.2-.3-.5-.5-.7-.8l-.2.2.3.3-.3.3-.3-.3zm8.1-.6c-.2.2-.3.3-.4.5-.1.1-.1.3-.1.4.1.3.5.4.7.1.1-.1.2-.3.3-.4l.1-.1-.2-.2c-.1.2-.3.3-.4.4l-.1.1c-.1.1-.1 0-.2 0-.1-.1-.1-.1-.1-.2l.1-.1c.1-.2.3-.3.4-.5 0 .1-.1.1-.1 0zm1.9 2.4c0-.1-.1-.2-.1-.2 0-.1 0-.1-.1 0-.2 0-.4.1-.6.1-.2 0-.3.1-.5.1 0 .1.1.2.1.2.1 0 .2-.1.3 0 .1 0 .1.2.1.2l-.2.2c0 .1.1.2.1.2.4-.3.6-.5.9-.8zm-5.2-2.5s0-.1 0 0c-.1-.3-.2-.6-.3-.8 0-.1 0-.2-.1-.2h-.2c-.1 0-.1 0-.1.1l-.3.9v.1h.2s.1 0 .1-.1 0-.2.1-.2h.2c.1 0 .1 0 .1.1s0 .1.1.2c0-.1.1-.1.2-.1zm-.4 10.8c-.2-.1-.3-.1-.5-.2v.5c.1-.1.3-.2.5-.3-.1.2-.1.4-.2.5h.5c-.1-.1-.2-.3-.3-.5.2.1.4.2.5.3v-.5c-.2.1-.3.1-.5.2.1-.2.2-.3.3-.5h-.5c0 .2.1.3.2.5zm6-4.2c0-.2.1-.4.1-.6-.4-.1-.7-.1-1-.2 0 .1 0 .2-.1.3 0 .1 0 .2-.1.3h.2c0-.1.1-.3.1-.4h.2c0 .1 0 .3-.1.4h.2c0-.1.1-.3.1-.4h.2v.4c.1.2.1.2.2.2zm-11.2.1h.1c.1 0 .1 0 .1-.1s0-.3-.1-.4c-.1-.1-.2-.2-.3-.2-.1 0-.2.1-.3.3v.2l-.1.1s-.1 0-.1-.1v-.3h-.2c0 .2 0 .4.1.5.1.1.2.1.4.1.1-.1.1-.2.2-.3v-.2l.1-.1s.1 0 .1.1v.4zm11.3-1.2c0-.1.1-.2 0-.3 0-.3-.2-.5-.5-.5s-.5.2-.5.4v.2c0 .2 0 .2.2.1 0-.2-.1-.4.1-.5.1-.1.3-.1.4 0 .2.1.1.3.1.5.1.1.2.1.2.1zm-1.7-3.3l-.3-.3c.2-.2.5-.4.7-.5-.1-.1-.1-.1-.1-.2-.3.2-.6.4-.8.7.1.2.3.4.4.5 0-.2.1-.2.1-.2zm-9.3 1.3c0-.1.1-.1.1-.2.1-.2 0-.3-.2-.4-.2-.1-.5-.2-.7-.3 0 .1-.1.2-.1.2h.1c.2.1.3.1.5.2s.2.1.1.3c.1.1.1.2.2.2zm-1.3 1.9v.6h.2v-.2h.6v-.2h-.7v-.2h-.1zm1.1.3c.1 0 .1 0 .1-.1s0-.1-.1-.1-.1 0-.1.1c-.1.1 0 .1.1.1z"/><path d="M194 1368.4c0 2.9-2.4 5-4.9 5-2.7 0-5-2.3-4.9-4.9 0-3 2.4-5 5-5 2.6.1 4.8 2.3 4.8 4.9zm-5 4.8c2.7 0 4.8-2.2 4.8-4.7 0-2.8-2.3-4.8-4.7-4.8-2.8 0-4.9 2.2-4.9 4.8.1 2.6 2.3 4.7 4.8 4.7zm2.1-10.7c-.1.4-.1.7-.2 1-.1 0-.1 0-.2-.1.1-.3.1-.5.2-.8-.1.1-.2.3-.3.4 0 .1-.1.1-.1.2s-.1.1-.1 0c-.1 0-.1-.1-.1-.1v-.7c-.1.2-.1.5-.2.8-.1 0-.1 0-.2-.1.1-.3.2-.7.3-1 .1 0 .2 0 .3.1v.7s0-.1.1-.1c.1-.2.2-.3.3-.5h.1c-.1.2 0 .2.1.2zm-4.6 1c-.1-.2-.2-.4-.4-.6.1 0 .1-.1.2-.1.2.3.4.6.5.9-.1 0-.1.1-.2.1h-.1c-.2-.1-.4-.3-.7-.4.1.2.3.4.4.7-.1 0-.1.1-.2.1-.2-.3-.3-.6-.5-.9.1 0 .1-.1.2-.1h.1c.3.1.5.2.7.3zm8.7 3.8c0 .1 0 .1.1.2-.3.1-.7.2-1 .2v-.3c.2-.2.4-.4.6-.5-.2.1-.5.1-.7.2v-.2c.3-.1.7-.2 1-.2 0 .1 0 .2.1.2v.1c-.2.2-.4.3-.5.5-.1-.1.1-.2.4-.2zm-3.6-4.5c.1.1.3.1.4.2l.1.1c.1.2 0 .3-.2.4h-.1c.1.1.1.2 0 .3-.1.1-.2.1-.3.1-.1 0-.4-.1-.5-.3.3-.2.5-.5.6-.8zm-.2.9c.1 0 .2.1.3.1l.1-.1c0-.1-.1-.1-.2-.2-.1 0-.1.1-.2.2zm.2-.4c.1 0 .1.1.2.1s.1 0 .1-.1v-.1l-.1-.1c-.1 0-.1.1-.2.2zm-7.8 2c0-.4.4-.6.7-.5.2.1.4.2.4.5 0 .4-.3.6-.7.5-.3-.1-.4-.3-.4-.5zm.6.3c.2 0 .3-.2.2-.3-.1-.1-.2-.2-.4-.2s-.3.1-.2.3c.1.1.3.2.4.2z"/><path d="M184.7 1364l.3.3.3-.3-.3-.3.2-.2c.2.3.5.5.7.8l-.2.2-.3-.3-.3.3.3.3-.2.2c-.2-.3-.5-.5-.7-.8l.2-.2zm8.1-.6l.2.2c-.1.2-.3.3-.4.5l-.1.1c0 .1 0 .2.1.2.1.1.1.1.2 0l.1-.1c.1-.1.2-.3.4-.4l.2.2-.1.1c-.1.1-.2.3-.3.4-.2.2-.6.2-.7-.1-.1-.2 0-.3.1-.4 0-.3.1-.5.3-.7zm1.9 2.4l-.8.8c0-.1-.1-.2-.1-.2l.2-.2c0-.1-.1-.2-.1-.2h-.3c0-.1-.1-.1-.1-.2.2 0 .3-.1.5-.1s.4-.1.6-.1h.1c-.1.1 0 .2 0 .2zm-.2 0c-.2 0-.3.1-.4.1 0 .1.1.1.1.2 0-.1.1-.2.3-.3zm-5-2.5h-.3c0-.1 0-.1-.1-.2 0-.1 0-.1-.1-.1h-.2s-.1.1-.1.2c0 0 0 .1-.1.1h-.2v-.1l.3-.9c0-.1 0-.1.1-.1h.2c.1 0 .1.1.1.2.2.3.3.6.4.9 0-.1 0 0 0 0zm-.5-.9c0 .2-.1.3-.1.4h.2c0-.1-.1-.2-.1-.4zm.1 11.7c-.1-.2-.1-.3-.2-.5h.5c-.1.2-.2.3-.3.5.2-.1.4-.1.5-.2v.5c-.2-.1-.3-.1-.5-.3.1.2.2.4.3.5h-.5c0-.1.1-.3.2-.5-.2.1-.3.2-.5.3v-.5c.1.1.3.1.5.2zm6-4.2h-.2v-.4h-.2c0 .1-.1.3-.1.4h-.2c0-.1 0-.3.1-.4h-.2c0 .1-.1.3-.1.4h-.2c0-.1 0-.2.1-.3 0-.1 0-.2.1-.3.4.1.7.1 1 .2 0 0-.1.2-.1.4zm-11.2.1v-.3l-.1-.1s-.1 0-.1.1v.2c0 .1-.1.2-.2.3-.1.1-.3 0-.4-.1-.1-.1-.1-.3-.1-.5h.2v.3l.1.1.1-.1v-.2c0-.2.1-.2.3-.3.1 0 .3 0 .3.2.1.1.1.3.1.4 0 .1 0 .1-.1.1 0-.1-.1-.1-.1-.1zm11.3-1.2h-.2c0-.2.1-.3-.1-.5-.1-.1-.3-.1-.4 0-.2.1-.2.3-.1.5-.2 0-.2.1-.2-.1v-.2c0-.3.3-.5.5-.4.3 0 .5.2.5.5.1 0 .1.1 0 .2zm-1.7-3.3c-.1 0-.1.1-.2.1-.1-.2-.3-.3-.4-.5.3-.2.6-.4.8-.7.1.1.1.1.1.2-.2.2-.5.4-.7.5.2.1.3.2.4.4zm-9.3 1.3c-.1 0-.1-.1-.2-.1.1-.2.1-.3-.1-.3-.2-.1-.3-.1-.5-.2h-.1c0-.1.1-.1.1-.2.2.1.5.2.7.3.2.1.2.2.2.4 0 0-.1 0-.1.1zm-1.3 1.9h.2v.2h.7v.2h-.6v.2h-.2c-.1-.2-.1-.4-.1-.6zm1.1.3c-.1 0-.1 0-.1-.1s.1-.1.1-.1c.1 0 .1 0 .1.1s-.1.1-.1.1z"/><path fill="#E1E1E1" d="M189 1373.2c-2.5 0-4.7-2.1-4.7-4.8 0-2.6 2.1-4.8 4.9-4.8 2.4 0 4.7 2 4.7 4.8-.1 2.6-2.1 4.9-4.9 4.8zm4.6-4.7c0-2.4-1.9-4.5-4.4-4.5-2.7 0-4.5 2.1-4.5 4.5 0 2.3 1.9 4.4 4.5 4.4 2.4 0 4.4-2.1 4.4-4.4zm-2.2-4.8c0-.1.1-.2.1-.2.1 0 .2.1.2.2 0 0 0 .1-.1.1 0 0-.1-.1-.2-.1zm.2-.4c0-.1.1-.1.1-.2.1 0 .1.1.1.1s.1.1 0 .1c0 .1-.1.1-.1.1 0-.1 0-.1-.1-.1zm-7.2 2.3c-.2 0-.4-.1-.4-.3-.1-.2.1-.3.2-.3.2 0 .3.1.4.2.1.2 0 .4-.2.4zm10.1.2l-.3.3c0-.1-.1-.1-.1-.2.1-.1.2-.1.4-.1zm-5.5-3.4c0 .1.1.3.1.4h-.2c0-.1 0-.2.1-.4z"/><path d="M193.6 1368.5c0 2.3-1.9 4.4-4.4 4.4-2.6 0-4.5-2.2-4.5-4.4 0-2.4 1.9-4.5 4.5-4.5 2.4 0 4.4 2.1 4.4 4.5zm-3.4.6l.1.1.1.1c.1 0 .1 0 .1-.1s0-.1-.1-.1h-.2l.1.1h.1c0 .1-.1.1-.2.1.1-.1 0-.2 0-.2-.1-.2-.1-.2-.3-.1 0 0 0-.1-.1-.1s-.2-.1-.2-.1c-.1 0-.1 0-.1.1h.1v.1h.1c0 .1.1.1.1.2v.1c.1 0 .2.1.2.1.1 0 .2.1.2.2v.2c0 .1.1.1.1.1 0-.1 0-.1.1-.2v-.1c.1-.2 0-.2-.1-.3-.1-.1-.2-.1-.1-.2-.1.1-.2 0-.2 0 .1-.1.1-.1.2 0zm-1.1-.6c1.2.5 2.3 1 3.5 1.5-.5-.5-1-1-1.4-1.5.5-.5 1-1 1.4-1.5h-.1c-.5.2-.9.4-1.4.6-.2.1-.3.2-.5.1-.1 0-.2 0-.3-.1 0 0 0-.1-.1 0-.1 0-.1.1-.1.2l.1.1c.1-.1.3 0 .4 0-.3.1-.7.3-1 .4h-.1v-.1l.1-.1c.1 0 .2 0 .2-.1h.1c.1 0 .1 0 .1-.1v-.1c.1-.3 0-.3.3-.3.1 0 .3-.1.4-.2.1-.1.1-.1 0-.2-.1 0-.1 0-.1.1h-.1s-.1 0-.1-.1c-.1.1-.1.1-.2 0-.1 0-.2.1-.3.1-.1.1-.2.1-.3.2 0-.1 0-.1.1-.2.1 0 .1-.1.2-.1s.1-.1.1-.1v-.2c-.1 0-.1 0-.2.1 0 .1-.1.1-.1.2l.2-.2v.2s-.1 0-.1.1c-.1 0-.1.1-.2.2s0 .2 0 .2v.1c0 .1 0 .1-.1.1s-.1.1-.1.2v.1s0 .1-.1.1c-.1.1-.2.1-.4.2.5-1.2 1-2.3 1.5-3.5-.5.5-1 1-1.5 1.4l-1.5-1.5c.5 1.2 1 2.3 1.5 3.5-1.2-.5-2.4-1-3.5-1.5.5.5 1 1 1.4 1.6-.5.5-1 1-1.4 1.5 1.2-.5 2.3-1 3.5-1.5.1 0 .1.1.2.1-.1.1-.2.1-.2.2-.1.2-.2.3-.4.3-.1 0-.1 0-.1.1v.1c-.1.1-.1.1-.2 0h-.1c-.1 0-.2.1-.2.2s-.1.1-.1.2-.1.1-.2 0l.2-.2c-.1 0-.2.1-.2.1-.1 0-.1.1-.1.2s.1.1.2 0l.1-.1c0-.1.1-.1.1-.2s.1-.1.2 0c-.2.1-.2.4-.4.6.1.1.1.1 0 .2.1.1.1.1 0 .2v.1c0 .1.1.1.2 0s.1-.2.2-.4v-.2s0-.1.1-.1.2 0 .3-.1v-.1s.1-.1.1-.2v-.1c0-.1.1-.1.2-.1s.1.1 0 .2-.1.3-.2.4c-.1.2-.1.3-.2.5 0 0 0 .1-.1.1v-.4c-.1-.1-.1-.1-.2 0s-.1.1 0 .1.1.1.1.2v.2c-.2.5-.4.9-.6 1.4 0 .1-.1.2-.1.3.5-.5 1-1 1.5-1.4.5.5 1 1 1.5 1.4-.4-1.4-.9-2.6-1.4-3.7zm2 .9l-.1-.1c-.1 0-.1 0-.1-.1h-.1c-.1 0-.1 0-.2.1 0 .1-.1.1-.2.1v.2l-.1.1s.1 0 .1.1v.3c0-.1.1-.1.1-.1h.3c0-.1.1-.1.1-.2.1 0 .1 0 .1-.1h.1c-.1 0 0-.1 0-.3zm-3.2-3.1c-.1 0-.2.1-.3 0l.1.1c-.1 0-.1 0-.1.1-.1 0-.1.1-.2.1v.4h.2v.1l.1-.1h.2c.1-.1.1-.2.2-.3 0 0-.1-.1 0-.1s0-.1 0-.1l-.1-.1-.1-.1zm.6 1.2c.1-.1 0-.2-.1-.3-.1 0-.1-.1-.2-.1-.1-.1-.1-.1 0-.2 0 .1.1.1.1.2v-.2c0-.1-.1-.1-.1-.1-.1 0-.1.1-.1.1 0 .1.1.1.1.2l.1.1c.1 0 .1.1 0 .1 0 0-.1 0-.1-.1l-.1-.1c-.1-.1-.1-.1-.2-.1h-.2s0 .1-.1.1h-.1c.1.1.1.1.3.1.1 0 .2 0 .2.1s.1.2.1.3c.1-.1.2.1.3.1h-.1.2v.1c.1 0 .2-.1.1-.2 0 .1-.1 0-.1-.1zm-1.4-.5l.1-.1-.2.2h-.2v.1h.1v.2h.2c.1 0 .2 0 .3-.1.1 0 .1-.1.2-.1h-.2s-.1 0-.1-.1v-.2c0-.1 0-.1-.1-.2s0-.2 0-.2 0-.1.1-.1h-.2v-.2l-.1.1h-.1c0 .1 0 .1-.1.2 0 .1.1.1.1.2v.3c.1-.1.2-.1.2 0zm3.9 3.4s.1 0 0 0c.1-.1.1-.1.2-.1v-.1h-.1s.1 0 .1-.1v-.1h-.1l-.1.1s0-.1.1-.1v-.1.1c0 .1-.1.1-.2 0h-.5l-.1-.1v-.2h-.1c-.1.1-.1.2-.1.3v.2c0 .1 0 .2.1.1v.1s.1 0 .1-.1c-.1-.2-.1-.3.1-.4 0 0 0 .1-.1.1l.1.1c.3.3.5.2.6.3zm-3.7-.1c.3.2.4.5.5.7v-.2c-.1-.1-.1-.2-.1-.3 0-.1 0-.2-.2-.2h-.1c-.1 0-.1-.1-.1-.1 0-.1-.1-.1-.1-.2 0 .1 0 .2.1.3-.1-.1-.3 0-.3.1v.1c0 .1 0 .1.1.2 0 0 0 .1.1.1h.1c0-.1-.1-.1-.1-.1-.1-.1-.1-.2.1-.2-.1-.1 0-.1 0-.2 0 .1 0 .1 0 0zm0-.4c.1-.1.1-.1 0-.2 0-.1-.1-.1-.2-.2v-.2c0 .1-.1.1-.1.2s-.1.1-.2.2c.1.1.1 0 .1 0v.3h.1l.1.1v-.2h.2c0-.1 0-.1 0 0zm3.1-3.6c.1-.1.1-.1 0-.1-.1.1-.3.2-.4.3h.2c0 .1 0 .2.1.2s.1 0 .2-.1h-.1c.1 0 .2-.2.3-.2v-.2h-.1c0 .1-.1.1-.2.1zm.6.8v-.1l-.1-.1h-.2v-.1c0 .1-.1.1-.2.1s-.1-.1-.2-.1c.1.2.2.3.3.4 0 0 0-.1.1-.1 0 .1.1.1.1.2v-.1h.1v-.1c-.1-.1 0-.1.1 0zm-3.3 2.7c-.2-.1-.3-.3-.4-.3 0 .1.1.1.1.2s0 .2-.1.2h.1c-.1.2.1.2.2.3h.1c-.1 0-.1-.1-.1-.2h.1c0-.1 0 0 .1-.1h.1c-.1 0-.1-.1-.2-.1-.1.1 0 .1 0 0zm4-2.6s-.1 0 0 0h-.2c-.1 0-.1-.1-.2-.1-.1-.1-.3-.2-.4-.3-.1-.1-.2-.2-.4-.2 0 0 0 .1.1.1s.1 0 .2.1c0 0 .1 0 .1.1s.1.1.1.1c.1 0 .3.1.4.2.1.1.2.1.3 0zm-2 2.2v.2c0 .1.1.2.1.1h.1v-.2c.1 0 .1-.1 0-.1 0-.1-.1-.1-.1-.1 0 .1 0 .1-.1.1zm-2-1.9c-.1 0-.1 0 0 0-.1 0 0 0 0 0 0 .1 0 .2.1.2h.3v-.1c0-.1 0-.1-.1-.1 0 0-.1-.1-.1 0h-.2c0-.1 0-.1 0 0-.1-.1 0 0 0 0zm3.3-.8v-.1c0-.2.1-.2.3-.1l.1.1c.1-.1.1-.1-.1-.2h-.4s0 .1-.1.1c.1.2.1.2.2.2z"/><path fill="#E1E1E1" d="M189.1 1368.5c.5 1.2 1 2.3 1.5 3.5-.5-.5-1-.9-1.5-1.4-.5.5-1 1-1.5 1.4 0-.1.1-.2.1-.3.2-.5.4-.9.6-1.4v-.2c0-.1 0-.2-.1-.2s-.1-.1 0-.1c.1-.1.1-.1.2 0v.2c0 .1.1.1 0 .2 0 0 0-.1.1-.1.1-.2.1-.3.2-.5.1-.1.1-.3.2-.4v-.2c-.1 0-.1 0-.2.1v.1c0 .1 0 .1-.1.2v.1c-.1 0-.2 0-.3.1l-.1.1v.2c0 .1-.1.3-.2.4-.1.1-.1.1-.2 0v-.1c.1-.1.1-.1 0-.2.1-.1.1-.1 0-.2.1-.2.2-.4.4-.6-.1-.1-.1 0-.2 0 0 .1-.1.1-.1.2l-.1.1h-.2c0-.1 0-.1.1-.2.1 0 .1-.1.2-.1l-.2.2c.1.1.1.1.2 0 0 0 .1-.1.1-.2s.1-.2.2-.2h.1c.1.1.1.1.2 0v-.1c0-.1.1-.1.1-.1.2 0 .4-.1.4-.3-.1.1 0 0 .1 0-.1 0-.1-.1 0 0-1.3.5-2.4 1-3.6 1.5.5-.5.9-1 1.4-1.5-.5-.5-1-1-1.4-1.6 1.2.5 2.3 1 3.5 1.5-.5-1.2-1-2.4-1.5-3.5l1.5 1.5c.5-.5 1-1 1.5-1.4-.5 1.2-1 2.3-1.5 3.5.1-.1.2-.1.4-.2 0 0 0-.1.1-.1v-.1c0-.1 0-.2.1-.2s.1-.1.1-.1v-.1c-.1-.1-.1-.1 0-.2 0-.1.1-.1.2-.2 0 0 .1 0 .1-.1.1 0 .1-.1 0-.2l-.2.2c0-.1.1-.1.1-.2s.1-.1.2-.1.1.1 0 .2c0 .1-.1.1-.1.1-.1 0-.1.1-.2.1s-.1.1-.1.2c.1-.1.2-.1.3-.2.1-.1.2-.1.3-.1.1.1.1.1.2 0l.1.1h.1c0-.1 0-.1.1-.1.1.1.1.1 0 .2s-.2.2-.4.2c-.3 0-.2 0-.3.3v.1c0 .1 0 .1-.1.1h-.1c-.1 0-.1.1-.2.1 0 0-.1 0-.1.1v.1h.1c.3-.1.6-.3 1-.4-.1.1-.3-.1-.4 0h-.1c0-.1.1-.2.1-.2h.1c0 .1.1.1.3.1.2 0 .3-.1.5-.1.5-.2.9-.4 1.4-.6h.1c-.5.5-1 1-1.4 1.5.5.5 1 1 1.4 1.5-1.2-.7-2.4-1.2-3.6-1.7z"/><path fill="#E1E1E1" d="M191.1 1369.4v.3h-.1c0 .1 0 .1-.1.1 0 .1-.1.1-.1.2h-.3c-.1 0-.1 0-.1.1v-.3s-.1 0-.1-.1c0 0 0-.1.1-.1v-.2c.1 0 .1 0 .2-.1.1 0 .1-.1.2-.1h.1l.1.1c0 .1 0 .1.1.1zm-.4.2l-.1.1.1.1v-.2zm0 .2c0 .1 0 .1 0 0h-.2v-.1.1s.1 0 .1.1.1.1.1-.1c0 .1 0 .1 0 0zm.1-.2c0 .1 0 .1.1.1 0-.1 0-.1-.1-.1zm-2.9-3.3l.1.1s0 .1.1.1.1.1 0 .1 0 .1 0 .1c-.1.1-.1.2-.2.3h-.2l-.1.1v-.1h-.2v-.1s.1-.1 0-.1v-.2c.1 0 .1-.1.2-.1 0 0 0-.1.1-.1 0 0 0-.1-.1-.1.1.1.2 0 .3 0zm-.4.6c0-.1-.1-.2 0-.3l-.1.1c.1.1.1.2.1.2zm.1-.1s.1 0 .1.1c0-.1 0-.1.1-.1h-.1c0-.1-.1-.1-.1 0zm.2-.2c0-.1-.1-.1-.1-.1 0 .1 0 .1.1.1zm.1 0c-.1.1-.1.1 0 .1v-.1zm.6.9c.1.1.1.2.2.3.1.1 0 .2-.1.2v-.1h-.2.1c-.1 0-.2-.2-.3-.1 0-.1-.1-.2-.1-.3 0-.1-.1-.1-.2-.1s-.2 0-.3-.1h.1l.1-.1h.2c.1 0 .2 0 .2.1l.1.1s.1 0 .1.1c.1-.1.1-.1 0-.1 0 0-.1 0-.1-.1 0 0-.1-.1-.1-.2s0-.1.1-.1.1 0 .1.1v.2c0-.1-.1-.1-.1-.2-.1 0-.1.1 0 .2s.1.1.2.1v.1z"/><path fill="#E1E1E1" d="M187.1 1367s-.1 0-.1-.1v-.3c0-.1 0-.1-.1-.2.1 0 .1-.1.1-.2h.1l.1-.1v.2h.2v.1c-.1.1-.1.1 0 .2s.1.1.1.2v.1c0 .1-.1.1 0 .1l.1.1h.2c-.1 0-.1.1-.2.1s-.2 0-.3.1h-.2v-.2h-.1v-.1c.1 0 .1.1.2 0 .1 0 .2-.1.2-.2-.2.1-.2.1-.3.2zm3.9 3.4c-.1-.1-.3 0-.5-.1 0 0 0-.1-.1-.1 0 0 0-.1.1-.1-.2.2-.2.2-.1.4 0 0-.1 0-.1.1v-.1c-.1 0-.1 0-.1-.1v-.2c0-.1 0-.2.1-.3h.1v.2s0 .1.1.1h.7v-.1.1s0 .1-.1.1l.1-.1h.1v.1h-.1.1v.1h-.3c.1 0 0 0 0 0zm-.8-1.3s-.1-.1-.2 0h.2c-.1.1 0 .1 0 .2.1.1.2.2.1.3v.1c-.1.1-.1.1-.1.2-.1 0-.1 0-.1-.1v-.2c0-.1-.1-.2-.2-.2s-.1 0-.2-.1v-.1c0-.1-.1-.1-.1-.2h-.1v-.1h-.1c0-.1.1-.1.1-.1.1 0 .2.1.2.1s0 .1.1.1c.2-.1.3-.1.4.1zm-2.9 1.2c0 .1 0 .1 0 0 0 .1-.1.1-.1.1-.1 0-.2.1-.1.2l.1.1h-.1s0-.1-.1-.1c0-.1 0-.1-.1-.2v-.1c.1.1.3 0 .4 0-.1-.2-.1-.2-.1-.3.1.1.1.1.1.2s0 .1.1.1h.1c.1 0 .1.1.2.2 0 .1.1.2.1.3 0 .1.1.2 0 .2-.1-.2-.2-.5-.5-.7z"/><path fill="#E1E1E1" d="M187.3 1369.9c0-.1 0-.1 0 0-.1 0-.1 0-.1.1v.2s-.1 0-.1-.1h-.1v-.3c-.1 0-.1.1-.1 0l.2-.2c0-.1.1-.1.1-.2v.2c.1 0 .2 0 .2.2l-.1.1zm-.3-.2c0 .1 0 .1 0 0 0 .1.1.1.1.1s-.1 0-.1-.1zm3.4-3.4h.3v.1h.1c-.2-.1-.2.1-.3.2h.1c0 .1-.1.1-.2.1s-.1-.1-.1-.2h-.2c.1-.1.3-.2.4-.3 0 0 0 .1-.1.1zm.1.2c0-.1-.1-.1 0 0-.1-.1-.1-.1-.2-.1.1 0 .1 0 .2.1z"/><path fill="#E1E1E1" d="M191 1367.1c-.1 0-.1-.1-.2-.1v.1h-.1v.1c0-.1-.1-.1-.1-.2 0 .1 0 .1-.1.1-.1-.1-.2-.3-.3-.4.1 0 .2.1.2.1.1 0 .2 0 .2-.1v.1h.2l.1.1c.1.1.1.1.1.2zm-3.3 2.7h-.1c.1 0 .1.1.2.1h-.1s-.1 0-.1.1h-.1c0 .1 0 .2.1.2 0 0-.1.1-.1 0-.1-.1-.3-.1-.2-.3h-.1c.1-.1.2-.1.1-.2 0-.1-.1-.1-.1-.2.3.1.3.3.5.3z"/><path fill="#E1E1E1" d="M191.7 1367.2c-.1.1-.2.1-.2 0-.1-.1-.2-.1-.4-.2-.1 0-.1 0-.1-.1l-.1-.1c-.1-.1-.1-.1-.2-.1 0 0 0-.1-.1-.1.1 0 .3 0 .4.2.1.1.2.2.4.3.1 0 .1.1.2.1h.1c-.1 0 0 0 0 0zm-2 2.2h.1c.1 0 .1.1.1.1v.3h-.1c-.1 0-.1 0-.1-.1v-.3zm-2-1.9s-.1-.1 0 0c0-.1 0-.1 0 0 .1 0 .1 0 .1-.1s.1 0 .1 0l.1.1v.1h-.3v-.1s-.1 0 0 0c-.1 0-.1 0 0 0z"/><path fill="#E1E1E1" d="M191 1366.7c-.1 0-.2-.1-.1-.2 0 0 0-.1.1-.1.1-.1.1-.1.2 0h.2c.1 0 .1.1.1.2l-.1-.1c-.1-.1-.2-.1-.3.1 0 0 0 .1-.1.1zm-.8 2.4l.2.2c.1.1.1 0 .2-.1h-.1c-.2-.1-.2-.1-.3-.1h.3c.1 0 .1 0 .1.1s0 .1-.1.1-.1 0-.1-.1c-.2 0-.2-.1-.2-.1z"/><path d="M190.7 1369.6c0 .1 0 .1-.1.2l-.1-.1c.1 0 .2-.1.2-.1z"/><path d="M190.7 1369.8c0 .1 0 .1 0 0l-.1.1s-.1 0-.1-.1v-.1.1c.1.1.1.1.2 0 0 .1 0 .1 0 0zm.1-.2s0 .1.1.1c-.1 0-.1 0-.1-.1zm-3.3-2.7c0-.1-.1-.1-.1-.2l.1-.1c-.1.2 0 .2 0 .3zm.1-.1l.1-.1h.1c-.1 0-.1 0-.1.1h-.1zm.2-.2c-.1 0-.1 0-.1-.1 0 0 .1 0 .1.1zm.1 0v.1c-.1 0-.1 0 0-.1zm-.9 3.1l.1.1-.1-.1c0 .1 0 .1 0 0zm3.3-3.3c.1 0 .1 0 0 0 .1 0 .1 0 .2.1"/><path fill="#F48A33" d="M473.1 1960.1c1.9 8 5.5 22.7 10 29.1 6.5 9.2 18.2 6.1 27.2 3.9 23.1-5.6 30.2-21.8 24.8-44.2-3.2-13.5-10.7-23.7-24.6-27.3-12.2-3.1-26 1-38 3.9l-7.3 1.8 7.9 32.8zm-9.4-39.2l7.6-1.8c10.4-2.5 19-4.1 26.9-11.7 8.4-8.8 8.1-19.4 5.3-30.8-5.1-21-18.9-28.7-39.9-23.6-3.1.7-12.2 2.4-13.6 4.5-1.3 1.8.5 8.4 1 10.3l12.7 53.1zm-30.7-20.4c-1.8-7.6-6-25-9.7-30.9-4.6-7.6-14.5-5-22-3.2l-1.3-5.4c11.4-2.5 22.6-4.7 34-7.2 9.4-2.5 18.5-5.2 27.9-7.7 24.6-6.7 59.5-8.3 67 23.1 5.2 21.5-10.1 34.9-26.7 44.7l.1.5c13.5-2 26.1-2.8 36.8 1.4 12.9 4.9 22.7 14.5 26 28.2 3.8 15.6-3.1 29.5-14.7 39.8-11.2 9.7-28.3 13.3-42 16.6-10.5 2.3-20.7 4.2-31.2 6.5-13.2 3.4-26.5 7.1-39.7 10.6l-1.3-5.4c7.6-1.8 17.5-4 18.1-12.9.6-6.9-3.6-24.4-5.4-31.9l-15.9-66.8zm167.7 23.4c5.4 22.4 18.3 46.8 45.9 40.2 25.7-6.2 25.9-33.7 20.8-54.7-5.5-22.7-18.2-47.6-46.1-40.9-25.7 6.1-25.5 34.8-20.6 55.4m90-21.7c7.7 31.9-13 60.1-44 67.6-30.7 7.4-62.4-10-69.9-41.2-7.3-30.2 15.3-58.9 44.1-65.8 29.4-7.1 62.5 8.9 69.8 39.4m119.9-4.9c3.8 15.6 3.6 23.1 22.3 19.9l1.1 4.7c-8.6 1.8-17.4 3.4-26 5.3-9.2 2.5-18 5.1-27.2 7.5l-1.1-4.7c17.4-5.4 14.9-10.8 11.1-26.4l-7.3-30.2c-3.9-16.3-8.8-39.6-31.2-34.2-18.4 4.4-26.8 21.7-22.6 38.9l8.8 36.6c3.8 15.6 3.3 23.2 22.3 19.9l1.1 4.7c-8.6 1.8-17.4 3.4-26 5.3-9.2 2.5-18 5.1-27.2 7.5l-1.1-4.7c17.4-5.4 14.9-10.8 11.1-26.4l-7-29.1c-1.6-6.6-5.6-23.1-8.1-28.3-3.9-8-10.1-5.6-17.6-3.7l-1.1-4.7c11.9-4.4 19.8-10.3 30.8-15.2l8.2 20.8.5-.1c4.7-16.6 15.9-26.6 32.6-30.6 22.4-5.4 37.6 1.7 43 24.1l10.6 43.1zm136.9-32.7c4.2 15.2 3.3 23 22.2 19.6l1.1 4.7c-8.8 1.9-17.4 3.4-26.2 5.3-9.2 2.5-18 5.1-27.2 7.5l-1.1-4.7c17.4-5.4 14.7-10.8 11.4-26.2l-11-45.8c-3.8-15.8-2.4-18.4-16.6-15l-41.6 10 15 62.4c3.9 15.3 3.5 22.9 22.2 19.6l1.1 4.7c-8.8 1.9-17.4 3.4-26.2 5.3-8.9 2.4-17.8 5-26.7 7.4l-1.1-4.7c17.2-5.4 14.4-10.7 10.9-26.1l-15.4-63.8-17 4.1-1.5-6.4 17-4.1-3-12.3c-8.2-34.2 3.6-53.6 38.3-61.9 12.5-3 39-7.1 43.2 10.1 1.4 5.7-2.7 10.6-8.1 11.9-16.3 3.9-6.6-23.2-35.2-16.3-27.2 6.5-24.3 25.8-18.9 48l3.8 15.6 40.6-9.8c11.3-2.7 22.2-6.6 32.5-11.6l17.5 72.5zm40.1-39.1c-1.5-6.4-5.3-23.2-8.3-28.2-4.2-8-9.9-5.6-17.4-3.8l-1.1-4.7c10.9-3.4 20.3-10.1 30.1-15 3.8 6.3 6.8 14.6 8.6 23.2l.5-.1c2.7-15.9 12.2-28.2 28.5-32.1 7.3-1.8 17.6-.5 19.7 8.2 1.1 4.5-1.7 9.4-6.2 10.5-9.9 2.4-10.8-10.4-20-8.2-7.1 1.7-13.5 9.5-15.6 16.2-3.1 11-.3 22.6 2.3 33.4l5.6 23.4c4.2 17.2 3.6 23.4 23.7 19.5l1.1 4.7c-9 1.9-18.4 3.7-27.4 5.6-9.2 2.5-18 5.1-27.2 7.5l-1.1-4.7c17.4-5.4 14.9-10.8 11.1-26.4l-6.9-29zm128-45.6c3.8-.9 11.9-1.6 10.4-7.5-3.5-14.6-13.8-22.2-28.7-18.6-17.7 4.3-21.6 19.4-20.7 35.5l39-9.4zm43.4 45.3c-7.8 16.4-19.5 25.9-37.2 30.2-29.3 7-58.3-7.7-65.6-37.9-7.1-29.5 8.9-61.6 39.6-69 23.1-5.6 48.2 2.1 54.4 27.6.7 3.1-3 3-5.4 3.5L1077 1796l1.8 11.6c5.4 22.4 23.2 44.6 48.5 38.6 12-2.9 20.7-13.5 25.6-24.6l6.1 3.6zm-12.7-100l.9 3.7 1.8-.4c1.9-.5 2.7-1.2 2.4-2.5-.3-1.4-1.4-1.7-3.4-1.2l-1.7.4zm7.3 0c.4 1.6-.3 2.9-1.8 3.7l3.8 4.6-2.4.6-3.5-4.3-2.1.5 1.2 4.8-2.1.5-2.7-11.3 4.3-1c3-.8 4.8-.1 5.3 1.9m.4-3.6c-2.1-1.3-4.4-1.7-6.8-1.1-2.3.6-4.3 1.9-5.4 3.9-1.3 2.1-1.7 4.6-1.1 6.9.5 2.3 2 4.2 4 5.5 2 1.3 4.4 1.7 6.7 1.1 2.4-.6 4.3-2 5.6-4 1.3-2 1.6-4.3 1.1-6.6-.7-2.5-2.1-4.5-4.1-5.7m.7-1.1c2.3 1.4 3.9 3.7 4.6 6.3.7 2.7.2 5.4-1.2 7.7-1.5 2.4-3.8 4.1-6.4 4.7-2.7.6-5.4.2-7.8-1.3-2.4-1.5-4-3.7-4.6-6.3-.6-2.6-.2-5.4 1.3-7.9 1.4-2.3 3.6-3.9 6.3-4.5 2.7-.7 5.4-.2 7.8 1.3"/><path fill="#020202" d="M743.8 2029.6c-4.3 1-8.2.2-11.2-1.6-4.5-2.7-6.9-7.1-8.3-13-1.4-5.9-1.3-10.9 1.5-15.4 1.9-3 4.9-5.5 9.2-6.6 7.2-1.7 13.7 1.7 16.3 8.5l-3.6.9c-1.9-4.6-6.5-7.3-11.8-6-3.3.8-5.7 2.5-7 4.9-2.3 4-2.1 8.3-1 12.8s2.8 8.5 6.7 11.1c2.3 1.4 5.1 1.9 8.4 1.1 5.4-1.3 8.1-5.9 7.8-10.9l3.7-.9c.7 6.9-3.4 13.3-10.7 15.1zm28.8-41.6c-8.7 2.1-9.2 10.5-7.4 17.8l4 16.7-3.5.8-8.4-34.8 3.1-.7 2.1 6.9c.4-5.2 4.4-8.9 9.3-10 1.1-.3 2.3-.6 3.5-.6l.8 3.5c-1.2-.1-2.4.1-3.5.4zm40.6 6.3l-26.6 6.4c1 4 3.3 7.5 6.1 9.6 2.5 1.8 5.6 2.6 9.3 1.7 3.1-.7 5.4-2.5 6.9-4.9.9-1.6 1.5-3.4 1.5-5.6l3.6-.9c.2 3.1-.6 5.9-2.1 8.3-1.9 3.1-5 5.5-9 6.4-5 1.2-9.1 0-12.3-2.3-3.7-2.7-6.4-6.9-7.6-12.2-1.1-4.4-1.4-8.9.4-13.2 2-4.7 5.5-7.7 10.4-8.9 9.4-2.3 16.8 4.5 19 13.3.1.9.2 1.5.4 2.3zm-18.6-12.3c-7.2 1.7-10.3 8.6-8.6 15.5l23.1-5.5c-1.9-6.6-7.4-11.7-14.5-10zm58.9 20.4c-4.3 1-6.3-1.8-7.1-5.5-.7 5.4-5.4 9.2-10.7 10.5-6.8 1.6-12.9-1.2-14.6-7.8-1.5-6.2 2.4-11 9.2-13.2l12.6-4-.8-3.4c-1.4-5.8-5.8-7-11.1-5.7-5.5 1.3-9.1 4.8-8.2 10.1l-3.5.8c-1.2-7.2 3.4-12.4 10.9-14.2 4.7-1.1 10.3-.8 13.3 3.6 1.4 2 2 4.2 2.5 6.5l3.8 15.9c.6 2.4 1.3 3.7 3.6 3.1.4-.1.6-.2 1-.3l.7 3.1c-.8.2-.8.3-1.6.5zm-9.9-16.8l-12.3 3.8c-5.1 1.6-7.8 5.1-6.7 9.4 1.2 5 5.6 6.6 10.5 5.4 8.8-2.1 10.5-10.1 8.9-16.7l-.4-1.9zm30.8 12.1c-6.5 1.6-10-1.9-11.4-8l-5.3-21.9-7 1.7-.8-3.2 7-1.7-2.3-9.6 3.3-1.7 2.5 10.4 10.8-2.6.8 3.2-10.8 2.6 5.2 21.8c1 4.1 2.8 6.8 7.5 5.6 1.9-.5 3.6-1.1 5.4-1.9l.7 3.1c-1.9.8-3.6 1.7-5.6 2.2zm2.5-48.2l-1.2-4.9 4.9-1.2 1.2 4.9-4.9 1.2zm11.4 44.3l-8.4-34.8 3.7-.9 8.4 34.8-3.7.9zm27.8-6.7l-3.6.9-22.2-31.5 4-1 18.9 27.1 4-32.6 3.7-.9-4.8 38zm42.4-27.7l-26.6 6.4c1 4 3.3 7.5 6.1 9.6 2.5 1.8 5.6 2.6 9.3 1.7 3.1-.7 5.4-2.5 6.9-4.9.9-1.6 1.5-3.4 1.5-5.6l3.6-.9c.2 3.1-.6 5.9-2.1 8.3-1.9 3.1-5 5.5-9 6.4-5 1.2-9.1 0-12.3-2.3-3.7-2.7-6.4-6.9-7.6-12.2-1.1-4.4-1.4-8.9.4-13.2 2-4.7 5.5-7.7 10.4-8.9 9.4-2.3 16.8 4.5 19 13.3.1.8.2 1.4.4 2.3zm-18.6-12.3c-7.2 1.7-10.3 8.6-8.6 15.5l23.1-5.5c-1.9-6.7-7.4-11.8-14.5-10zm34.2-21l-1.2-4.9 4.9-1.2 1.2 4.9-4.9 1.2zm11.4 44.3l-8.4-34.8 3.7-.9 8.4 34.8-3.7.9zm40.4-9.7l-5.5-22.8c-1.5-6.1-4.9-8.9-11.3-7.4-8.6 2.1-9.8 10.2-8 17.7l4.2 17.4-3.5.8-8.4-34.8 3.1-.7 1.9 6.2c.9-4.9 5.2-8.9 10-10.1 8-1.9 13.4 2 15.3 9.8l5.5 23-3.3.9zm26-5.8c-6.5 1.6-10-1.9-11.4-8l-5.3-21.9-7 1.7-.8-3.2 7-1.7-2.3-9.6 3.3-1.7 2.5 10.4 10.8-2.6.8 3.2-10.8 2.6 5.2 21.8c1 4.1 2.8 6.8 7.5 5.6 1.9-.5 3.6-1.1 5.4-1.9l.7 3.1c-1.9.9-3.7 1.8-5.6 2.2zm35.9-26.7l-26.6 6.4c1 4 3.3 7.5 6.1 9.6 2.5 1.8 5.6 2.6 9.3 1.7 3.1-.7 5.4-2.5 6.9-4.9.9-1.6 1.5-3.4 1.5-5.6l3.6-.9c.2 3.1-.6 5.9-2.1 8.3-1.9 3.1-5 5.5-9 6.4-5 1.2-9.1 0-12.3-2.3-3.7-2.7-6.4-6.9-7.6-12.2-1.1-4.4-1.4-8.9.4-13.2 2-4.7 5.5-7.7 10.4-8.9 9.4-2.3 16.8 4.5 19 13.3.1.9.2 1.5.4 2.3zm-18.6-12.3c-7.2 1.7-10.3 8.6-8.6 15.5l23.1-5.5c-1.9-6.6-7.4-11.7-14.5-10zm38.5 25.5c-4.5 1.1-7.5-.6-8.7-5.7l-10.4-43.3 3.5-.8 10.4 43.2c.6 2.4 1.7 4 4.6 3.3 1.4-.3 2-.5 3-.9l.7 3.1c-.8.3-1.6.8-3.1 1.1zm18-4.3c-4.5 1.1-7.5-.6-8.7-5.7l-10.4-43.3 3.5-.8 10.4 43.2c.6 2.4 1.7 4 4.6 3.3 1.4-.3 2-.5 3-.9l.7 3.1c-.7.3-1.6.7-3.1 1.1zm.2-47.6l-1.2-4.9 4.9-1.2 1.2 4.9-4.9 1.2zm11.4 44.4l-8.4-34.8 3.7-.9 8.4 34.8-3.7.9zm45.4 1.4c-2.3 3.8-7.2 6.1-12.8 7.4-5.3 1.3-10.3 1.4-13.9-.9-1.9-1.2-3.3-3-3.9-5.7-.8-3.3.4-7.1 3.3-9.4-2.6-.1-5.2-2.2-5.8-4.7-.7-3 .3-5.5 2.6-7.6-2.7-1.6-4.7-4.1-5.5-7.7-1.8-7.5 2.8-13.6 10.1-15.3 3.1-.7 6.1-.6 8.7.4.2-3.2 2.8-5.7 5.9-6.4.4-.1.9-.1 1.4-.2l.7 3c-.4.1-.9.1-1.4.2-2.5.6-4 2.4-3.9 4.9 2.2 1.6 3.9 4 4.7 7.1 1.8 7.5-2.9 13.5-10.3 15.2-2.6.6-5.1.6-7.3.1-1.6 1.1-3 3-2.4 5.2.4 1.7 1.7 2.5 3.2 2.7 1.4.2 3.5-.2 4.8-.6l7.6-1.8c4.5-1.1 8.3-.8 11.1.9 2.1 1.3 3.7 3 4.4 6.1.4 2.7-.2 5.1-1.3 7.1zm-5.1-10.2c-2-1.3-4.9-1.5-9-.5l-9.2 2.2c-2.8 1.4-5 4.5-4.1 8.6.4 1.8 1.6 3.2 2.9 3.9 3.1 1.8 7.5 1.1 11 .3s8.3-2.4 10.3-5.7c.8-1.3 1.2-3 .8-4.8-.5-2-1.4-3.1-2.7-4zm-20.2-30.6c-5.4 1.3-8.8 5.8-7.4 11.4 1.3 5.6 6.3 7.9 11.8 6.6 5.4-1.3 8.9-5.7 7.5-11.2-1.4-5.6-6.5-8.1-11.9-6.8zm54.3 3.9l-26.6 6.4c1 4 3.3 7.5 6.1 9.6 2.5 1.8 5.6 2.6 9.3 1.7 3.1-.7 5.4-2.5 6.9-4.9.9-1.6 1.5-3.4 1.5-5.6l3.6-.9c.2 3.1-.6 5.9-2.1 8.3-1.9 3.1-5 5.5-9 6.4-5 1.2-9.1 0-12.3-2.3-3.7-2.7-6.4-6.9-7.6-12.2-1.1-4.4-1.4-8.9.4-13.2 2-4.7 5.5-7.7 10.4-8.9 9.4-2.3 16.8 4.5 19 13.3.2.8.2 1.5.4 2.3zm-18.6-12.3c-7.2 1.7-10.3 8.6-8.6 15.5l23.1-5.5c-1.8-6.7-7.4-11.7-14.5-10zm55.7 20.9l-5.5-22.8c-1.5-6.1-4.9-8.9-11.3-7.4-8.6 2.1-9.8 10.2-8 17.7l4.2 17.4-3.5.8-8.4-34.8 3.1-.7 1.9 6.2c.9-4.9 5.1-8.9 10-10.1 8-1.9 13.4 2 15.3 9.8l5.5 23-3.3.9zm27.5-5.7c-4.3 1-8.2.2-11.2-1.6-4.5-2.7-6.9-7.1-8.3-13-1.4-5.9-1.3-10.9 1.5-15.4 1.8-3 4.9-5.5 9.2-6.6 7.2-1.7 13.7 1.7 16.3 8.5l-3.6.9c-1.9-4.6-6.5-7.3-11.8-6-3.3.8-5.7 2.5-7 4.9-2.3 4-2.1 8.3-1 12.8s2.8 8.5 6.7 11.1c2.3 1.4 5.1 1.9 8.4 1.1 5.4-1.3 8.1-5.9 7.8-10.9l3.7-.9c.7 6.9-3.4 13.4-10.7 15.1zm45-29.3l-26.6 6.4c1 4 3.3 7.5 6.1 9.6 2.5 1.8 5.6 2.6 9.3 1.7 3.1-.7 5.4-2.5 6.9-4.9.9-1.6 1.5-3.4 1.5-5.6l3.6-.9c.2 3.1-.6 5.9-2.1 8.3-1.9 3.1-5 5.5-9 6.4-5 1.2-9.1 0-12.3-2.3-3.7-2.7-6.4-6.9-7.6-12.2-1.1-4.4-1.4-8.9.4-13.2 2-4.7 5.5-7.7 10.4-8.9 9.4-2.3 16.8 4.5 19 13.3.1.8.2 1.5.4 2.3zm-18.6-12.3c-7.2 1.7-10.3 8.6-8.6 15.5l23.1-5.5c-1.9-6.6-7.4-11.7-14.5-10z"/></svg>